<?xml version="1.0" standalone="no"?>
<!DOCTYPE svg PUBLIC "-//W3C//DTD SVG 1.1//EN" "http://www.w3.org/Graphics/SVG/1.1/DTD/svg11.dtd" >
<svg xmlns="http://www.w3.org/2000/svg">
<metadata></metadata>
<defs>
<font id="apex_newheavy" horiz-adv-x="1085" >
<font-face units-per-em="2048" ascent="1536" descent="-512" />
<missing-glyph horiz-adv-x="368" />
<glyph unicode="&#xfb01;" horiz-adv-x="1400" d="M8 719v250l162 45v78q0 93 26 168t74 126t109 87.5t137.5 57t151.5 29.5t159 9q248 0 463 -58v-317q-199 53 -407 53q-312 0 -312 -162v-61h719v-657q0 -62 80 -62v-309q-71 -16 -149 -16q-153 0 -242.5 71.5t-89.5 220.5v447h-318v-719h-401v719h-162z" />
<glyph unicode="&#xfb02;" horiz-adv-x="1400" d="M8 719v250l162 45v78q0 111 39 196.5t101 137.5t150.5 85t177.5 45.5t191 12.5q263 0 461 -58v-1144q0 -62 80 -62v-309q-71 -16 -149 -16q-153 0 -242.5 71.5t-89.5 220.5v977h-35q-283 0 -283 -155v-70h238v-305h-238v-719h-401v719h-162z" />
<glyph unicode="&#xfb03;" horiz-adv-x="2119" d="M8 719v250l162 45v78q0 111 39 196.5t101 137.5t150.5 85t177.5 45.5t191 12.5q222 0 400 -41q139 41 317 41q248 0 463 -58v-317q-199 53 -407 53q-312 0 -312 -162v-61h719v-657q0 -62 80 -62v-309q-72 -16 -150 -16q-153 0 -242 71.5t-89 220.5v447h-318v-719h-401 v719h-318v-719h-401v719h-162zM571 1024h318v68q0 92 22 157q-13 0 -33.5 1t-23.5 1q-283 0 -283 -155v-72z" />
<glyph unicode="&#xfb04;" horiz-adv-x="2119" d="M8 719v250l162 45v78q0 111 39 196.5t101 137.5t150.5 85t177.5 45.5t191 12.5q222 0 400 -41q141 41 319 41q263 0 461 -58v-1144q0 -62 80 -62v-309q-72 -16 -150 -16q-153 0 -242 71.5t-89 220.5v977h-35q-283 0 -283 -155v-70h238v-305h-238v-719h-401v719h-318v-719 h-401v719h-162zM571 1024h318v68q0 92 22 157q-13 0 -33.5 1t-23.5 1q-283 0 -283 -155v-72z" />
<glyph horiz-adv-x="2048" />
<glyph horiz-adv-x="2048" />
<glyph unicode="&#xd;" horiz-adv-x="2048" />
<glyph unicode=" "  horiz-adv-x="368" />
<glyph unicode="&#x09;" horiz-adv-x="368" />
<glyph unicode="&#xa0;" horiz-adv-x="368" />
<glyph unicode="!" horiz-adv-x="532" d="M37 1536h459l-97 -1065h-266zM41 193q0 94 65.5 159.5t159.5 65.5t160 -65.5t66 -159.5t-66 -160t-160 -66t-159.5 66t-65.5 160z" />
<glyph unicode="&#x22;" horiz-adv-x="942" d="M45 1536h401l-67 -512h-264zM496 1536h401l-68 -512h-264z" />
<glyph unicode="#" horiz-adv-x="1454" d="M27 274l88 297h180l41 138h-189l89 297h190l82 274h321l-81 -274h178l82 274h321l-82 -274h180l-88 -297h-182l-41 -138h191l-88 -297h-191l-82 -274h-321l82 274h-179l-82 -274h-321l82 274h-180zM616 571h179l41 138h-179z" />
<glyph unicode="$" horiz-adv-x="1071" d="M66 827q0 357 464 357l78 223h289l-90 -248q116 -20 164 -39l-4 -325q-83 31 -206 51t-214 20q-96 0 -96 -45q0 -23 19 -31.5t67 -13.5q79 -7 132.5 -14.5t107.5 -19t88 -27.5t64 -39t46.5 -55t25.5 -73.5t9 -96.5q0 -357 -488 -357l-76 -221h-288q73 205 88 246 q-120 20 -174 45l6 325q95 -36 218.5 -57.5t215.5 -21.5q109 0 109 47q0 25 -19.5 34.5t-64.5 12.5q-108 9 -181.5 21.5t-132 35.5t-91.5 58.5t-49.5 86t-16.5 121.5z" />
<glyph unicode="%" horiz-adv-x="2236" d="M49 887q0 219 106 322.5t316 103.5t316 -103.5t106 -322.5t-106 -322.5t-316 -103.5t-316 103.5t-106 322.5zM406 887q0 -80 15 -104.5t50 -24.5t50.5 24.5t15.5 104.5t-15.5 104.5t-50.5 24.5t-50 -24.5t-15 -104.5zM518 0l909 1280h291l-907 -1280h-293zM1343 393 q0 219 106 322.5t316 103.5t316 -103.5t106 -322.5t-106 -322.5t-316 -103.5t-316 103.5t-106 322.5zM1700 393q0 -80 15 -104.5t50 -24.5t50.5 24.5t15.5 104.5t-15.5 104.5t-50.5 24.5t-50 -24.5t-15 -104.5z" />
<glyph unicode="&#x26;" horiz-adv-x="1585" d="M47 436q0 165 62 266t184 170q-62 143 -62 273q0 87 27.5 161.5t81.5 134.5t144.5 94t207.5 34q438 0 438 -408q0 -141 -78 -233.5t-237 -167.5q89 -121 223 -219q51 72 79 178t28 219v86h383q4 -62 4 -115q0 -324 -164 -559q86 -47 188 -71l-141 -326q-168 50 -325 133 q-197 -119 -451 -119q-284 0 -438 115t-154 354zM426 479q0 -95 65.5 -138.5t161.5 -43.5q57 0 97 12q-180 149 -281 285q-43 -46 -43 -115zM610 1139q0 -49 31 -121q62 29 91.5 60t29.5 73q0 72 -72 72q-80 0 -80 -84z" />
<glyph unicode="'" horiz-adv-x="491" d="M45 1536h401l-67 -512h-264z" />
<glyph unicode="(" horiz-adv-x="710" d="M90 567q0 184 24.5 356t64 301.5t79.5 222.5t82 157h328q-42 -65 -83 -160t-80.5 -225t-64 -301t-24.5 -351t24.5 -351t64 -301t80.5 -224.5t83 -159.5h-328q-42 64 -82 156.5t-79.5 222t-64 301.5t-24.5 356z" />
<glyph unicode=")" horiz-adv-x="710" d="M43 -469q42 65 83 159.5t80.5 224.5t64 301t24.5 351t-24.5 351t-64 301t-80.5 225t-83 160h328q42 -64 82 -157t79.5 -222.5t64 -301.5t24.5 -356t-24.5 -356t-64 -301.5t-79.5 -222t-82 -156.5h-328z" />
<glyph unicode="*" horiz-adv-x="1212" d="M53 975l135 416l234 -113l-35 258h438l-34 -258l233 113l135 -416l-252 -47l178 -187l-356 -258l-123 228l-123 -228l-356 258l178 187z" />
<glyph unicode="+" horiz-adv-x="1228" d="M82 512v373h346v346h373v-346h346v-373h-346v-346h-373v346h-346z" />
<glyph unicode="," horiz-adv-x="532" d="M0 -256l70 614h422l-205 -614h-287z" />
<glyph unicode="-" horiz-adv-x="679" d="M53 508v315h574v-315h-574z" />
<glyph unicode="." horiz-adv-x="532" d="M41 193q0 94 65.5 159.5t159.5 65.5t160 -65.5t66 -159.5t-66 -160t-160 -66t-159.5 66t-65.5 160z" />
<glyph unicode="/" horiz-adv-x="1112" d="M0 -410l707 2048h405l-706 -2048h-406z" />
<glyph unicode="0" horiz-adv-x="1269" d="M59 641q0 191 35 321t109 207.5t178 110.5t254 33t254 -33t178 -110.5t108.5 -207.5t34.5 -321q0 -192 -34.5 -322t-108.5 -208t-178 -111t-254 -33t-254 33t-178 111t-109 208.5t-35 321.5zM446 641q0 -135 21.5 -207.5t60 -96.5t107.5 -24q52 0 84.5 12.5t57.5 48 t35.5 100t10.5 167.5q0 134 -21 205.5t-59.5 96t-107.5 24.5t-107.5 -24t-60 -96t-21.5 -206z" />
<glyph unicode="1" horiz-adv-x="753" d="M18 940v254l435 119h184v-1313h-399v948z" />
<glyph unicode="2" horiz-adv-x="1107" d="M59 0v254q304 206 434 339.5t130 233.5q0 68 -37 105t-127 37q-177 0 -346 -76l-7 340q74 36 188 58t238 22q125 0 217.5 -25t144.5 -62.5t83 -93.5t40 -107t9 -114q0 -87 -33.5 -169t-96.5 -153.5t-140 -133t-176 -121.5l467 8v-342h-988z" />
<glyph unicode="3" horiz-adv-x="1093" d="M59 -215l4 342q186 -70 392 -70q213 0 213 168q0 158 -185 158h-262v309h262q65 0 103.5 33.5t38.5 105.5q0 70 -49.5 105t-139.5 35q-189 0 -366 -74l-4 346q69 34 189 52t228 18q277 0 397.5 -111t120.5 -323q0 -109 -40.5 -191.5t-110.5 -132.5q86 -39 142.5 -124 t56.5 -212q0 -118 -30 -208.5t-95.5 -159t-175.5 -104.5t-263 -36q-263 0 -426 74z" />
<glyph unicode="4" horiz-adv-x="1298" d="M31 53v244l653 1014h377v-920h205v-338h-205v-309h-389v309h-641zM463 387l209 4l4 361z" />
<glyph unicode="5" horiz-adv-x="1103" d="M59 -217l4 344q176 -64 375 -64q54 0 94 8t73.5 27t51 54.5t17.5 87.5t-15 86t-45.5 51t-64 23t-82.5 6h-371v874h916v-342h-537v-217h76q60 0 107.5 -4t102 -16t95 -33t80 -57.5t64.5 -86.5t40 -122.5t15 -163.5q0 -126 -34 -221t-88.5 -152.5t-134 -93t-159.5 -48 t-176 -12.5q-254 0 -404 72z" />
<glyph unicode="6" horiz-adv-x="1245" d="M80 655q0 96 3.5 174.5t13 159.5t25 144.5t41 125.5t59.5 108t81.5 85.5t106.5 64t135 38.5t166 14q144 0 252 -23.5t167 -54.5l-4 -346q-158 76 -350 76q-177 0 -252.5 -84.5t-70.5 -255.5q52 55 124.5 75.5t174.5 20.5q424 0 424 -494q0 -68 -8.5 -126t-29.5 -119 t-60.5 -108t-97 -85t-144 -58t-195.5 -20q-161 0 -270.5 42t-173 131t-90.5 212.5t-27 302.5zM463 489q0 -94 40 -139t126 -45q87 0 127.5 45t40.5 139q0 185 -150 185q-100 0 -142 -45.5t-42 -139.5z" />
<glyph unicode="7" horiz-adv-x="1067" d="M18 940v340h1031v-217l-496 -1319h-428l547 1204z" />
<glyph unicode="8" horiz-adv-x="1236" d="M51 451q0 126 59 220t138 136q-64 46 -108 126.5t-44 186.5q0 449 522 449q521 0 521 -449q0 -106 -44 -186.5t-108 -126.5q79 -42 139 -136t60 -220q0 -239 -149.5 -361.5t-418.5 -122.5q-270 0 -418.5 122.5t-148.5 361.5zM420 477q0 -77 47 -124.5t151 -47.5 q103 0 150 47.5t47 124.5q0 180 -197 180q-198 0 -198 -180zM469 1087q0 -69 38.5 -108t110.5 -39q70 0 110 39t40 108q0 73 -41 109.5t-109 36.5q-69 0 -109 -36t-40 -110z" />
<glyph unicode="9" horiz-adv-x="1245" d="M74 797q0 58 5.5 108.5t21.5 104t41 96.5t66.5 82.5t96 66.5t132 42.5t171.5 15.5q130 0 226 -28.5t160 -81.5t103 -139t55.5 -191.5t16.5 -247.5q0 -125 -6 -222.5t-23.5 -195.5t-47 -170t-77.5 -136.5t-114 -104t-158 -62.5t-208 -23q-145 0 -260.5 23t-176.5 53l6 348 q162 -78 377 -78q177 0 249 84t67 258q-52 -55 -124.5 -75.5t-172.5 -20.5q-426 0 -426 494zM455 791q0 -185 149 -185q99 0 140.5 45t41.5 140q0 93 -40 138.5t-125 45.5q-87 0 -126.5 -45t-39.5 -139z" />
<glyph unicode=":" horiz-adv-x="532" d="M41 193q0 94 65.5 159.5t159.5 65.5t160 -65.5t66 -159.5t-66 -160t-160 -66t-159.5 66t-65.5 160zM41 799q0 94 65.5 159.5t159.5 65.5t160 -65.5t66 -159.5t-66 -160t-160 -66t-159.5 66t-65.5 160z" />
<glyph unicode=";" horiz-adv-x="532" d="M0 -256l70 614h422l-205 -614h-287zM41 799q0 94 65.5 159.5t159.5 65.5t160 -65.5t66 -159.5t-66 -160t-160 -66t-159.5 66t-65.5 160z" />
<glyph unicode="&#x3c;" horiz-adv-x="1228" d="M82 543v311l1065 424v-389l-580 -191l580 -190v-389z" />
<glyph unicode="=" horiz-adv-x="1228" d="M82 279v372h1065v-372h-1065zM82 745v373h1065v-373h-1065z" />
<glyph unicode="&#x3e;" horiz-adv-x="1228" d="M82 119v389l580 190l-580 191v389l1065 -424v-311z" />
<glyph unicode="?" horiz-adv-x="995" d="M25 1499q55 29 165.5 49.5t233.5 20.5q135 0 235.5 -24.5t159 -64t94 -98.5t47 -117t11.5 -132q0 -58 -10 -106.5t-23 -83.5t-41 -68t-49 -52.5t-63 -44t-66.5 -36.5t-75.5 -35q-61 -29 -84.5 -62t-23.5 -90q0 -38 4 -84h-256q-60 103 -60 197q0 98 47 162.5t172 117.5 q74 31 105 58.5t31 85.5q0 61 -43 93t-150 32q-78 0 -183.5 -20t-172.5 -54zM188 193q0 94 66 159.5t160 65.5t159.5 -65.5t65.5 -159.5t-65.5 -160t-159.5 -66t-160 66t-66 160z" />
<glyph unicode="@" horiz-adv-x="2144" d="M104 512q0 155 33 281.5t107.5 231t189 175.5t281.5 109.5t381 38.5q209 0 367.5 -29t268 -83.5t178.5 -138t99.5 -188t30.5 -239.5q0 -261 -140 -414.5t-401 -153.5h-203l-20 58q-54 -43 -139 -68.5t-162 -25.5q-216 0 -327 107.5t-111 338.5q0 230 111 338t327 108 q75 0 161 -26t140 -68l20 58h273v-568q110 0 156.5 81t46.5 235q0 167 -65 262.5t-211 139.5t-400 44q-381 0 -552 -140.5t-171 -463.5t171 -463.5t552 -140.5q174 0 383 30.5t313 75.5l6 -235q-118 -42 -321 -72.5t-381 -30.5q-214 0 -381 38.5t-281.5 109.5t-189 175.5 t-107.5 231t-33 281.5zM930 512q0 -77 33.5 -110t109.5 -33q30 0 59 10t39 16v232q-5 4 -17.5 9.5t-36 12t-44.5 6.5q-76 0 -109.5 -33t-33.5 -110z" />
<glyph unicode="A" horiz-adv-x="1310" d="M14 0l377 1544h529l376 -1544h-422l-57 279h-323l-58 -279h-422zM555 584h201l-101 585z" />
<glyph unicode="B" horiz-adv-x="1249" d="M76 0v1536h588q148 0 251 -32.5t158 -94.5t78 -137.5t23 -177.5q0 -87 -41.5 -161.5t-110.5 -119.5q87 -39 141 -124.5t54 -211.5q0 -85 -15 -153t-53 -130t-99 -103.5t-156.5 -66t-221.5 -24.5h-596zM477 330h178q142 0 142 157q0 158 -142 158h-178v-315zM477 940h156 q119 0 119 133t-119 133h-156v-266z" />
<glyph unicode="C" horiz-adv-x="1153" d="M59 768q1 415 167.5 608t514.5 193q198 0 357 -64l-4 -358q-157 55 -308 55q-81 0 -138.5 -20.5t-100 -69t-63.5 -133.5t-21 -211t20.5 -211.5t64 -134t100.5 -68.5t138 -20q151 0 308 55l4 -358q-149 -64 -357 -64q-348 0 -514.5 192.5t-167.5 608.5z" />
<glyph unicode="D" horiz-adv-x="1323" d="M76 0v1536h524q158 0 276.5 -39t192 -105.5t119 -166.5t63 -209.5t17.5 -247.5q0 -139 -17.5 -248.5t-63 -209.5t-119.5 -166t-192 -105t-276 -39h-524zM477 350h125q145 0 199.5 100t54.5 318q0 217 -55 317.5t-199 100.5h-125v-836z" />
<glyph unicode="E" horiz-adv-x="1169" d="M76 0v1536h1032v-354h-631v-215h574v-355h-574v-258h631v-354h-1032z" />
<glyph unicode="F" horiz-adv-x="1130" d="M76 0v1536h1022v-354h-621v-246h561v-354h-561v-582h-401z" />
<glyph unicode="G" horiz-adv-x="1320" d="M59 768q0 406 165.5 603.5t514.5 197.5q301 0 484 -82l-4 -365q-109 39 -205.5 59.5t-214.5 20.5q-183 0 -259.5 -101.5t-76.5 -334.5q0 -174 37.5 -273t113 -139.5t205.5 -40.5l27 2v275h-193v330h594v-840q-81 -50 -215.5 -81.5t-296.5 -31.5q-347 0 -511.5 198 t-164.5 603z" />
<glyph unicode="H" horiz-adv-x="1323" d="M76 0v1536h401v-569h369v569h401v-1536h-401v612h-369v-612h-401z" />
<glyph unicode="I" horiz-adv-x="577" d="M88 0v1536h401v-1536h-401z" />
<glyph unicode="J" horiz-adv-x="792" d="M6 8l6 354q94 -32 181 -32q131 0 131 127v1079h401v-1178q0 -198 -117 -294.5t-364 -96.5q-50 0 -122 10t-116 31z" />
<glyph unicode="K" horiz-adv-x="1357" d="M76 0v1536h399v-616l377 616h479l-495 -674l532 -862h-500l-311 565l-82 -121v-444h-399z" />
<glyph unicode="L" horiz-adv-x="1075" d="M76 0v1536h401v-1182h578v-354h-979z" />
<glyph unicode="M" horiz-adv-x="1695" d="M76 0v1536h522l250 -887l250 887h522v-1536h-399l22 905l-213 -725h-364l-213 725l22 -905h-399z" />
<glyph unicode="N" horiz-adv-x="1351" d="M76 0v1536h387l430 -799l-19 799h402v-1536h-387l-430 799l18 -799h-401z" />
<glyph unicode="O" horiz-adv-x="1363" d="M59 768q0 109 8 197.5t27 173t50 149t79.5 118.5t113 89t151.5 54.5t194 19.5t194 -19.5t151.5 -54.5t113 -89t79.5 -118.5t50 -149t27 -173t8 -197.5t-8 -197.5t-27 -173t-50 -149t-79.5 -118.5t-113 -89t-151.5 -54.5t-194 -19.5t-194 19.5t-151.5 54.5t-113 89 t-79.5 118.5t-50 149t-27 173t-8 197.5zM467 768q0 -173 20.5 -268t66 -135.5t128.5 -40.5t128.5 40.5t66 135.5t20.5 268t-20.5 268t-66 135.5t-128.5 40.5t-128.5 -40.5t-66 -135.5t-20.5 -268z" />
<glyph unicode="P" horiz-adv-x="1222" d="M76 0v1536h547q125 0 224 -28t163.5 -76t107.5 -114t61.5 -139t18.5 -155q0 -83 -18.5 -156t-61 -139.5t-107.5 -113.5t-164 -75t-224 -28h-146v-512h-401zM477 860h148q42 0 72.5 16t46 42.5t22 52t6.5 51.5q0 25 -6.5 50t-22 51.5t-46 43.5t-72.5 17h-148v-324z" />
<glyph unicode="Q" horiz-adv-x="1366" d="M59 768q0 109 8 197.5t27 173t50 149t79.5 118.5t113 89t151.5 54.5t194 19.5t194 -19.5t151.5 -54.5t113 -89t79.5 -118.5t50 -149t27 -173t8 -197.5q0 -243 -44 -408.5t-153 -261.5l317 -67l-6 -371l-985 340q-88 30 -153.5 81.5t-107.5 118t-68 157t-36 188.5t-10 223 zM467 768q0 -173 20.5 -268t66 -135.5t128.5 -40.5t128.5 40.5t66 135.5t20.5 268t-20.5 268t-66 135.5t-128.5 40.5t-128.5 -40.5t-66 -135.5t-20.5 -268z" />
<glyph unicode="R" horiz-adv-x="1284" d="M76 0v1536h567q158 0 269 -34t175 -100t92.5 -153.5t28.5 -204.5q0 -148 -46 -249t-154 -160l276 -635h-465l-201 559h-141v-559h-401zM477 881h172q131 0 131 161q0 66 -30 113t-101 47h-172v-321z" />
<glyph unicode="S" horiz-adv-x="1222" d="M55 74l4 375q81 -46 206 -81.5t259 -35.5q135 0 193.5 33.5t58.5 99.5q0 67 -43.5 96.5t-140.5 42.5q-150 18 -245 46t-164 82t-98.5 137.5t-29.5 209.5q0 233 149 361.5t455 128.5q149 0 268 -23.5t185 -56.5l-6 -367q-74 35 -191.5 58.5t-224.5 23.5q-235 0 -235 -123 q0 -64 45.5 -91t146.5 -38q95 -12 163 -26t131.5 -37.5t104.5 -56.5t72.5 -81.5t45.5 -114t14 -151.5q0 -143 -43.5 -244.5t-127 -160.5t-193.5 -86t-255 -27q-153 0 -286 27.5t-218 79.5z" />
<glyph unicode="T" horiz-adv-x="1163" d="M20 1182v354h1123v-354h-361v-1182h-401v1182h-361z" />
<glyph unicode="U" horiz-adv-x="1327" d="M68 498v1038h401v-1008q0 -63 15.5 -105.5t44.5 -63.5t61 -29t74 -8q43 0 75 8t60.5 29t43.5 63.5t15 105.5v1008h402v-1038q0 -103 -24.5 -187t-69 -140.5t-100.5 -97.5t-125 -63.5t-136.5 -32.5t-140.5 -10q-88 0 -167.5 14t-160 51t-138 94.5t-94 153t-36.5 218.5z " />
<glyph unicode="V" horiz-adv-x="1314" d="M10 1536h432l215 -1057l215 1057h433l-414 -1544h-467z" />
<glyph unicode="W" horiz-adv-x="1818" d="M20 1536h414l94 -971l160 971h442l160 -971l94 971h414l-237 -1544h-482l-170 1016l-170 -1016h-481z" />
<glyph unicode="X" horiz-adv-x="1384" d="M4 0l406 799l-377 737h454l203 -512l203 512h455l-377 -737l405 -799h-461l-225 522l-225 -522h-461z" />
<glyph unicode="Y" horiz-adv-x="1372" d="M0 1536h449l233 -578l233 578h449l-485 -938l4 -598h-402l4 598z" />
<glyph unicode="Z" horiz-adv-x="1261" d="M35 0v236l633 929l-582 -6v377h1114v-236l-633 -929l660 4v-375h-1192z" />
<glyph unicode="[" horiz-adv-x="604" d="M115 -467v2071h442v-314h-131v-1444h131v-313h-442z" />
<glyph unicode="\" horiz-adv-x="1112" d="M0 1638h406l706 -2048h-405z" />
<glyph unicode="]" horiz-adv-x="604" d="M47 -154h131v1444h-131v314h442v-2071h-442v313z" />
<glyph unicode="^" horiz-adv-x="1024" d="M39 768l297 801h352l297 -801h-369l-104 377l-104 -377h-369z" />
<glyph unicode="_" horiz-adv-x="608" d="M-8 -197h624v-315h-624v315z" />
<glyph unicode="`" d="M184 1536h389l103 -418h-266z" />
<glyph unicode="a" horiz-adv-x="1046" d="M37 297q0 76 19.5 133t52.5 92.5t85.5 59.5t108 35t131.5 18l182 16v41q0 39 -28.5 56.5t-110.5 17.5q-89 0 -190 -24.5t-172 -59.5l-4 303q68 29 188.5 50.5t237.5 21.5q110 0 190.5 -18t130.5 -49t79.5 -81t40.5 -106t11 -131v-672h-268l-39 66q-118 -99 -301 -99 q-177 0 -260.5 90.5t-83.5 239.5zM383 322q0 -55 28 -79t72 -24q90 0 135 45v193l-120 -15q-60 -6 -87.5 -32.5t-27.5 -87.5z" />
<glyph unicode="b" horiz-adv-x="1136" d="M66 0v1536h401v-535q107 56 231 56q204 0 304 -128.5t100 -416.5t-100 -416.5t-304 -128.5q-171 0 -323 101l-43 -68h-266zM467 301q46 -31 108 -31q78 0 106 54t28 188q0 133 -28 186.5t-106 53.5q-61 0 -108 -31v-420z" />
<glyph unicode="c" horiz-adv-x="876" d="M35 512q0 273 121.5 409t396.5 136q169 0 272 -41l-4 -324q-91 35 -192 35q-102 0 -151.5 -49.5t-49.5 -165.5t49.5 -165.5t151.5 -49.5q101 0 192 35l4 -324q-103 -41 -272 -41q-275 0 -396.5 136t-121.5 409z" />
<glyph unicode="d" horiz-adv-x="1136" d="M35 512q0 289 99.5 417t303.5 128q125 0 232 -56v535h401v-1536h-266l-43 68q-152 -101 -324 -101q-204 0 -303.5 128t-99.5 417zM428 512q0 -134 28 -188t105 -54q25 0 51.5 7.5t39 13.5t18.5 10v420q-47 31 -109 31q-77 0 -105 -53.5t-28 -186.5z" />
<glyph unicode="e" horiz-adv-x="1058" d="M35 512q0 278 126 411.5t390 133.5q110 0 193 -26t134.5 -69t83.5 -107t44 -131.5t12 -150.5q0 -97 -8 -176h-617v-8q-1 -69 47 -99q50 -32 178 -32q184 0 361 61l6 -280q-88 -36 -203.5 -54t-218.5 -18q-281 0 -404.5 131.5t-123.5 413.5zM393 602h281q2 21 2 40 q0 60 -24 96q-32 48 -101 48q-71 0 -115 -47.5t-43 -136.5z" />
<glyph unicode="f" horiz-adv-x="825" d="M8 719v250l162 45v180q0 189 102 282t320 93q150 0 239 -37l-6 -313q-49 28 -143 28q-54 0 -82.5 -26.5t-28.5 -71.5v-125h238v-305h-238v-719h-401v719h-162z" />
<glyph unicode="g" horiz-adv-x="1124" d="M-31 -266q0 101 60 163t151 83q-49 18 -76.5 65t-27.5 102t31 104t83 79q-157 91 -157 332q0 205 115 300t366 95q164 0 262 -33h336v-256l-121 -33q6 -38 6 -73q0 -206 -115.5 -301t-367.5 -95q-71 0 -104 2q-11 -16 -11 -30q0 -30 41 -33l412 -45q153 -18 214.5 -98.5 t61.5 -215.5q0 -81 -34.5 -146.5t-94.5 -110.5t-143.5 -75.5t-179 -44.5t-203.5 -14q-248 0 -376 71t-128 208zM334 -166q0 -47 39.5 -72.5t138.5 -25.5q102 0 169 27t67 69q0 44 -48 49l-307 37q-26 -11 -42.5 -33.5t-16.5 -50.5zM397 655q0 -135 117 -135t117 135 q0 136 -117 136t-117 -136z" />
<glyph unicode="h" horiz-adv-x="1134" d="M66 0v1536h401v-532q109 53 244 53q87 0 152.5 -18.5t105.5 -49.5t65 -78t34 -98t9 -115v-698h-401v662q0 81 -78 81q-70 0 -131 -36v-707h-401z" />
<glyph unicode="i" horiz-adv-x="581" d="M45 1327q0 94 65.5 159.5t159.5 65.5t160 -65.5t66 -159.5t-66 -159.5t-160 -65.5t-159.5 65.5t-65.5 159.5zM70 272v752h401v-657q0 -62 80 -62v-309q-72 -16 -150 -16q-153 0 -242 71.5t-89 220.5z" />
<glyph unicode="j" horiz-adv-x="559" d="M-109 -219q111 0 150 42t39 130v1071h401v-1147q0 -88 -30 -159t-83.5 -119.5t-128.5 -81t-161.5 -47.5t-186.5 -15v326zM55 1327q0 94 66 159.5t160 65.5t159.5 -65.5t65.5 -159.5t-65.5 -159.5t-159.5 -65.5t-160 65.5t-66 159.5z" />
<glyph unicode="k" horiz-adv-x="1165" d="M66 0v1536h401l-10 -838l215 326h473l-365 -434l396 -590h-486l-184 362l-47 -67l8 -295h-401z" />
<glyph unicode="l" horiz-adv-x="581" d="M70 272v1264h401v-1169q0 -62 80 -62v-309q-72 -16 -150 -16q-153 0 -242 71.5t-89 220.5z" />
<glyph unicode="m" horiz-adv-x="1691" d="M66 0v1024h266l37 -66q60 44 148 71.5t177 27.5q183 0 260 -84q59 39 144.5 61.5t177.5 22.5q85 0 149.5 -19t103.5 -50.5t63 -79t33 -97.5t9 -113v-698h-401v684q0 59 -68 59q-62 0 -114 -36v-707h-402v684q0 59 -67 59q-63 0 -115 -36v-707h-401z" />
<glyph unicode="n" horiz-adv-x="1134" d="M66 0v1024h266l37 -66q159 99 342 99q87 0 152.5 -18.5t105.5 -49.5t65 -78t34 -98t9 -115v-698h-401v662q0 81 -78 81q-70 0 -131 -36v-707h-401z" />
<glyph unicode="o" d="M35 512q0 137 25 235t83.5 169.5t157.5 106t242 34.5t242 -34.5t157.5 -106t83.5 -169.5t25 -235t-25 -235t-83.5 -169.5t-157.5 -106t-242 -34.5t-242 34.5t-157.5 106t-83.5 169.5t-25 235zM424 512q0 -140 25.5 -191t93.5 -51t93.5 51t25.5 191t-25.5 191t-93.5 51 t-93.5 -51t-25.5 -191z" />
<glyph unicode="p" horiz-adv-x="1136" d="M66 -512v1536h266l43 -68q152 101 323 101q204 0 304 -128.5t100 -416.5t-100 -416.5t-304 -128.5q-124 0 -231 56v-535h-401zM467 303q46 -31 108 -31q78 0 106 53.5t28 186.5q0 134 -28 188t-106 54q-61 0 -108 -31v-420z" />
<glyph unicode="q" horiz-adv-x="1136" d="M35 512q0 289 99.5 417t303.5 128q172 0 324 -101l43 68h266v-1536h-401v535q-107 -56 -232 -56q-204 0 -303.5 128t-99.5 417zM428 512q0 -133 28 -186.5t105 -53.5q25 0 51.5 7.5t39 13.5t18.5 10v420q-47 31 -109 31q-77 0 -105 -54t-28 -188z" />
<glyph unicode="r" horiz-adv-x="792" d="M66 0v1024h266l37 -66q49 42 129 70.5t168 28.5q76 0 110 -17l-4 -329q-32 8 -100 8q-61 0 -119 -16t-86 -35v-668h-401z" />
<glyph unicode="s" horiz-adv-x="964" d="M47 37l6 303q195 -80 381 -80q117 0 117 62q0 33 -20.5 46.5t-61.5 16.5q-249 22 -335.5 84.5t-86.5 226.5q0 170 113 265.5t354 95.5q225 0 367 -58l-7 -303q-167 66 -344 66q-114 0 -114 -62q0 -33 20 -46.5t60 -16.5q131 -11 208.5 -28t127.5 -53.5t68 -89.5t18 -140 q0 -359 -480 -359q-219 0 -391 70z" />
<glyph unicode="t" horiz-adv-x="831" d="M2 719v250l162 45v205l401 106v-301h234v-305h-234v-342q0 -50 24.5 -73t78.5 -23q58 0 114 14l6 -299q-82 -29 -221 -29q-214 0 -308.5 90.5t-94.5 274.5v387h-162z" />
<glyph unicode="u" horiz-adv-x="1134" d="M57 326v698h402v-662q0 -81 78 -81q70 0 131 36v707h401v-1024h-266l-37 66q-159 -99 -342 -99q-87 0 -152.5 18.5t-106 49.5t-65 78t-34 98t-9.5 115z" />
<glyph unicode="v" d="M-8 1024h409l142 -623l141 623h410l-342 -1032h-418z" />
<glyph unicode="w" horiz-adv-x="1433" d="M4 1024h379l63 -584l99 584h344l98 -584l64 584h379l-207 -1032h-400l-106 602l-107 -602h-399z" />
<glyph unicode="x" horiz-adv-x="1140" d="M-4 0l305 528l-289 496h441l116 -285l117 285h440l-288 -496l305 -528h-445l-129 299l-129 -299h-444z" />
<glyph unicode="y" horiz-adv-x="1110" d="M-6 1024h432l129 -590l135 590h424l-549 -1536h-452l237 526z" />
<glyph unicode="z" horiz-adv-x="1003" d="M35 0v272l405 428l-372 -14v338h876v-272l-405 -428l430 14v-338h-934z" />
<glyph unicode="{" horiz-adv-x="583" d="M33 422v291h55q53 0 47 53l-35 582q-7 130 68 193t205 63h164v-314h-70q-28 0 -42 -12.5t-11 -38.5l35 -516q4 -110 -78 -156q82 -46 78 -155l-35 -516q-3 -26 11 -39t42 -13h70v-313h-164q-130 0 -205 63t-68 193l35 582q6 53 -47 53h-55z" />
<glyph unicode="|" horiz-adv-x="577" d="M88 -410v2048h401v-2048h-401z" />
<glyph unicode="}" horiz-adv-x="583" d="M47 -156h70q28 0 42 13t11 39l-35 516q-4 109 78 155q-82 46 -78 156l35 516q3 26 -11 38.5t-42 12.5h-70v314h164q130 0 204.5 -63t67.5 -193l-34 -582q-6 -53 47 -53h55v-291h-55q-53 0 -47 -53l34 -582q7 -130 -67.5 -193t-204.5 -63h-164v313z" />
<glyph unicode="~" horiz-adv-x="1024" d="M53 504v321q23 23 84 41.5t127 18.5q69 0 140 -19t121.5 -42.5t117.5 -42.5t127 -19q58 0 120 22t81 43v-321q-23 -23 -83.5 -41.5t-127.5 -18.5t-138 19t-122 42.5t-117.5 42.5t-126.5 19t-121.5 -22t-81.5 -43z" />
<glyph unicode="&#xa1;" horiz-adv-x="532" d="M37 -512l96 1065h266l97 -1065h-459zM41 831q0 94 65.5 160t159.5 66t160 -66t66 -160t-66 -159.5t-160 -65.5t-159.5 65.5t-65.5 159.5z" />
<glyph unicode="&#xa2;" horiz-adv-x="1050" d="M63 641q0 261 124 396t384 147l78 223h289l-88 -244q61 -11 137 -41l-4 -323q-140 51 -293 51q-122 0 -179.5 -51.5t-57.5 -157.5q0 -108 57.5 -159.5t179.5 -51.5q148 0 293 53l4 -323q-140 -64 -364 -64h-33l-76 -223h-289l99 274q-261 114 -261 494z" />
<glyph unicode="&#xa3;" horiz-adv-x="1228" d="M45 0v328h131v186h-131v250h131v78q0 83 16 151.5t55 129t100.5 101.5t157 65t220.5 24q259 0 416 -74l-4 -326q-192 64 -357 64q-211 0 -211 -156v-57h428v-250h-428v-186h596v-328h-1120z" />
<glyph unicode="&#xa4;" horiz-adv-x="1638" d="M70 242l213 213q-70 137 -70 313t70 313l-213 213l237 238l219 -219q139 65 293 65t293 -65l219 219l238 -238l-213 -213q69 -132 69 -313t-69 -313l213 -213l-238 -238l-219 219q-139 -65 -293 -65t-293 65l-219 -219zM610 768q0 -127 51.5 -183.5t157.5 -56.5 q104 0 156.5 56.5t52.5 183.5t-52.5 183.5t-156.5 56.5q-106 0 -157.5 -56.5t-51.5 -183.5z" />
<glyph unicode="&#xa5;" horiz-adv-x="1355" d="M33 1280h446l199 -471l199 471h444l-227 -408h192v-206h-309l-27 -50h336v-208h-414l2 -408h-395l2 408h-413v208h335l-28 50h-307v206h192z" />
<glyph unicode="&#xa6;" horiz-adv-x="507" d="M88 -410v973h401v-973h-401zM88 666v972h401v-972h-401z" />
<glyph unicode="&#xa7;" horiz-adv-x="1433" d="M63 547q0 269 191 391q-12 62 -12 141q0 233 149 361.5t455 128.5q149 0 267.5 -23.5t184.5 -56.5l-6 -367q-74 35 -191 58.5t-224 23.5q-236 0 -236 -123q0 -64 45.5 -91t147.5 -38q99 -12 171.5 -27.5t135 -41t104 -60t70.5 -84t42 -114t13 -148.5q0 -267 -190 -391 q12 -64 12 -141q0 -233 -149 -361.5t-455 -128.5q-149 0 -268 23.5t-185 56.5l6 367q74 -35 191.5 -58.5t224.5 -23.5q236 0 236 123q0 64 -45.5 91t-147.5 38q-150 18 -245 46t-164 82t-98.5 137.5t-29.5 209.5zM463 549q0 -64 45.5 -91t146.5 -38q157 -20 238 -45 q78 31 78 100q0 64 -45.5 91t-147.5 38q-130 14 -239 43q-76 -30 -76 -98z" />
<glyph unicode="&#xa8;" d="M61 1327q0 94 66 159.5t160 65.5t159.5 -65.5t65.5 -159.5t-65.5 -159.5t-159.5 -65.5t-160 65.5t-66 159.5zM573 1327q0 94 66 159.5t160 65.5t159.5 -65.5t65.5 -159.5t-65.5 -159.5t-159.5 -65.5t-160 65.5t-66 159.5z" />
<glyph unicode="&#xa9;" horiz-adv-x="1589" d="M104 639q0 143 36 257t98.5 190.5t151 127t188.5 73t215 22.5q116 0 217 -22.5t189.5 -73t151 -127t98.5 -190.5t36 -257q0 -142 -36 -256t-98.5 -190t-151 -126.5t-189.5 -73t-217 -22.5q-115 0 -215 22.5t-188.5 73t-151 126.5t-98.5 190t-36 256zM268 639 q0 -135 41.5 -235.5t115.5 -159.5t167 -87t205 -28q88 0 164 17t143 56t114.5 97t75 145t27.5 195q0 109 -27.5 196t-75 145.5t-114.5 97.5t-143 56t-164 17q-112 0 -205 -28.5t-167 -87t-115.5 -159.5t-41.5 -237zM401 641q0 204 101.5 306t310.5 102q159 0 258 -45 l-4 -250q-113 37 -211 37q-160 0 -160 -150q0 -149 160 -149q112 0 211 36l4 -249q-106 -48 -258 -48q-412 0 -412 410z" />
<glyph unicode="&#xaa;" horiz-adv-x="819" d="M31 991q0 132 71 186t230 68l133 12v25q0 26 -18.5 38.5t-69.5 12.5q-141 0 -291 -63l-8 243q60 23 158 39.5t192 16.5q103 0 170.5 -19.5t103 -60t49 -90t13.5 -121.5v-510h-240l-20 39q-86 -68 -215 -68q-258 0 -258 252zM301 1020q0 -37 19.5 -55.5t50.5 -18.5 q57 0 96 29v135l-82 -8q-84 -10 -84 -82z" />
<glyph unicode="&#xab;" horiz-adv-x="987" d="M88 399v226l389 297v-293l-117 -117l117 -117v-293zM498 399v226l389 297v-293l-117 -117l117 -117v-293z" />
<glyph unicode="&#xac;" horiz-adv-x="1228" d="M82 678v373h1065v-678h-373v305h-692z" />
<glyph unicode="&#xad;" horiz-adv-x="679" d="M53 508v315h574v-315h-574z" />
<glyph unicode="&#xae;" horiz-adv-x="1589" d="M104 639q0 143 36 257t98.5 190.5t151 127t188.5 73t215 22.5q116 0 217 -22.5t189.5 -73t151 -127t98.5 -190.5t36 -257q0 -142 -36 -256t-98.5 -190t-151 -126.5t-189.5 -73t-217 -22.5q-115 0 -215 22.5t-188.5 73t-151 126.5t-98.5 190t-36 256zM268 639 q0 -135 41.5 -235.5t115.5 -159.5t167 -87t205 -28q246 0 381 127h-277l-74 240h-63v-240h-301v768h469q158 0 224.5 -71t66.5 -199q0 -68 -29 -126.5t-82 -88.5l109 -238q100 127 100 338q0 109 -27.5 196t-75 145.5t-114.5 97.5t-143 56t-164 17q-112 0 -205 -28.5 t-167 -87t-115.5 -159.5t-41.5 -237zM764 702h119q39 0 39 52q0 46 -43 49h-115v-101z" />
<glyph unicode="&#xaf;" d="M223 1194v266h639v-266h-639z" />
<glyph unicode="&#xb0;" horiz-adv-x="872" d="M74 1229q0 340 362 340q363 0 363 -340t-363 -340q-362 0 -362 340zM354 1229q0 -72 82 -72t82 72q0 71 -82 71t-82 -71z" />
<glyph unicode="&#xb1;" horiz-adv-x="1228" d="M82 0v373h1065v-373h-1065zM82 678v373h346v245h373v-245h346v-373h-346v-246h-373v246h-346z" />
<glyph unicode="&#xb2;" horiz-adv-x="890" d="M53 696v219q216 104 304.5 169.5t88.5 117.5q0 32 -21.5 52t-64.5 20q-125 0 -278 -60l-4 293q54 27 151.5 44.5t208.5 17.5q89 0 157 -16.5t108.5 -42t66 -62t34.5 -71t9 -74.5q0 -212 -319 -326l342 10v-291h-783z" />
<glyph unicode="&#xb3;" horiz-adv-x="933" d="M63 719l5 282q16 -5 45.5 -13t112.5 -21t159 -13q168 0 168 39q0 31 -51 31h-312v186h293q54 0 54 29q0 39 -152 39q-63 0 -138 -11t-119 -23l-44 -11l-4 280q38 20 141 38t207 18q202 0 314 -59t112 -181q0 -66 -30.5 -112t-75.5 -60q137 -56 137 -213 q0 -135 -115 -207.5t-342 -72.5q-101 0 -212.5 18.5t-152.5 36.5z" />
<glyph unicode="&#xb4;" d="M410 1118l102 418h389l-225 -418h-266z" />
<glyph unicode="&#xb5;" horiz-adv-x="1134" d="M57 -512v1536h402v-662q0 -81 78 -81q70 0 131 36v707h401v-1024h-266l-37 66q-146 -90 -315 -99l8 -479h-402z" />
<glyph unicode="&#xb6;" horiz-adv-x="1222" d="M76 1024q0 82 18.5 155t61.5 139t107.5 114t163.5 76t224 28h547v-1536h-401v512h-52v-512h-247v524q-113 19 -196.5 66.5t-131.5 116t-71 147.5t-23 170z" />
<glyph unicode="&#xb7;" horiz-adv-x="536" d="M41 666q0 94 65.5 159.5t159.5 65.5t160 -65.5t66 -159.5t-66 -160t-160 -66t-159.5 66t-65.5 160z" />
<glyph unicode="&#xb8;" d="M330 -279q74 -22 162 -22q106 0 106 51q0 58 -154 78l17 172h168l6 -96q207 -53 207 -201q0 -108 -81 -161.5t-218 -53.5q-133 0 -213 33v200z" />
<glyph unicode="&#xb9;" horiz-adv-x="694" d="M27 1245v215l391 109h151v-873h-342v557z" />
<glyph unicode="&#xba;" horiz-adv-x="856" d="M33 1155q0 219 90 316.5t305 97.5t305 -97.5t90 -316.5q0 -220 -90 -318t-305 -98t-305 98t-90 318zM346 1155q0 -92 19 -126t63 -34t63 34t19 126q0 91 -19 124.5t-63 33.5t-63 -33.5t-19 -124.5z" />
<glyph unicode="&#xbb;" horiz-adv-x="987" d="M100 102v293l117 117l-117 117v293l389 -297v-226zM510 102v293l117 117l-117 117v293l389 -297v-226z" />
<glyph unicode="&#xbc;" horiz-adv-x="2144" d="M27 1245v215l391 109h151v-873h-342v557zM281 0l1089 1536h291l-1088 -1536h-292zM1149 133v223l407 516h404v-469h131v-270h-131v-133h-332v133h-479zM1516 399l112 4l10 158z" />
<glyph unicode="&#xbd;" horiz-adv-x="2140" d="M27 1245v215l391 109h151v-873h-342v557zM281 0l1089 1536h291l-1088 -1536h-292zM1298 0v219q216 104 305 169.5t89 117.5q0 32 -21.5 52t-64.5 20q-126 0 -279 -60l-4 293q54 27 151.5 44t208.5 17q89 0 157 -16.5t108.5 -42t66 -62t34.5 -71t9 -74.5q0 -211 -319 -325 l342 10v-291h-783z" />
<glyph unicode="&#xbe;" horiz-adv-x="2351" d="M63 719l5 282q16 -5 45.5 -13t112.5 -21t159 -13q168 0 168 39q0 31 -51 31h-312v186h293q54 0 54 29q0 39 -152 39q-63 0 -138 -11t-119 -23l-44 -11l-4 280q38 20 141 38t207 18q202 0 314 -59t112 -181q0 -66 -30.5 -112t-75.5 -60q137 -56 137 -213 q0 -135 -115 -207.5t-342 -72.5q-101 0 -212.5 18.5t-152.5 36.5zM487 0l1090 1536h291l-1088 -1536h-293zM1356 133v223l407 516h404v-469h131v-270h-131v-133h-332v133h-479zM1722 399l113 4l10 158z" />
<glyph unicode="&#xbf;" horiz-adv-x="995" d="M25 -109q0 45 6 84.5t14 70.5t25.5 60t31.5 49t41 41.5t44.5 34.5t52 31.5t53.5 27.5t59 27q62 29 85.5 62t23.5 90q0 38 -4 84h256q59 -102 59 -197q0 -98 -47 -162.5t-172 -117.5q-74 -31 -104.5 -58.5t-30.5 -85.5q0 -61 42.5 -93t149.5 -32q78 0 184 20t173 54 l4 -356q-55 -29 -166 -49.5t-234 -20.5q-98 0 -177.5 12.5t-135.5 34.5t-98 55t-67.5 68.5t-41 81.5t-21 89.5t-5.5 94.5zM356 831q0 94 66 160t160 66t159.5 -66t65.5 -160t-65.5 -159.5t-159.5 -65.5t-160 65.5t-66 159.5z" />
<glyph unicode="&#xc0;" horiz-adv-x="1310" d="M14 0l377 1544h529l376 -1544h-422l-57 279h-323l-58 -279h-422zM328 1864h397l94 -254h-327zM555 584h201l-101 585z" />
<glyph unicode="&#xc1;" horiz-adv-x="1310" d="M14 0l377 1544h529l376 -1544h-422l-57 279h-323l-58 -279h-422zM492 1610l94 254h397l-164 -254h-327zM555 584h201l-101 585z" />
<glyph unicode="&#xc2;" horiz-adv-x="1310" d="M14 0l377 1544h529l376 -1544h-422l-57 279h-323l-58 -279h-422zM225 1610l258 254h344l258 -254h-297l-133 82l-133 -82h-297zM555 584h201l-101 585z" />
<glyph unicode="&#xc3;" horiz-adv-x="1310" d="M14 0l377 1544h529l376 -1544h-422l-57 279h-323l-58 -279h-422zM201 1610v12q0 146 67.5 203t192.5 57q69 0 133 -22.5t115.5 -45t87.5 -22.5q90 0 90 72h223v-13q0 -146 -67.5 -203t-192.5 -57q-69 0 -133 22.5t-115.5 45t-87.5 22.5q-90 0 -90 -71h-223zM555 584h201 l-101 585z" />
<glyph unicode="&#xc4;" horiz-adv-x="1310" d="M14 0l377 1544h529l376 -1544h-422l-57 279h-323l-58 -279h-422zM174 1737q0 45 17 75.5t49.5 45.5t69.5 20.5t89 5.5t89 -5.5t70 -20.5t50 -45.5t17 -75.5t-17 -75.5t-50 -45.5t-70 -21t-89 -6t-89 6t-69.5 21t-49.5 45.5t-17 75.5zM555 584h201l-101 585zM686 1737 q0 45 17 75.5t49.5 45.5t69.5 20.5t89 5.5t89 -5.5t70 -20.5t50 -45.5t17 -75.5t-17 -75.5t-50 -45.5t-70 -21t-89 -6t-89 6t-69.5 21t-49.5 45.5t-17 75.5z" />
<glyph unicode="&#xc5;" horiz-adv-x="1310" d="M14 0l377 1544h529l376 -1544h-422l-57 279h-323l-58 -279h-422zM418 1735q0 85 56 116t181 31t181.5 -30.5t56.5 -114.5q0 -85 -56.5 -115.5t-181.5 -30.5t-181 30t-56 114zM555 584h201l-101 585zM598 1737q0 -35 57 -35q58 0 58 33q0 19 -14 26.5t-44 7.5 q-57 0 -57 -32z" />
<glyph unicode="&#xc6;" horiz-adv-x="1951" d="M8 0l613 1536h1273v-358h-667l22 -209h586v-359h-549l27 -252h581v-358h-958l-31 279h-356l-96 -279h-445zM653 584h221l-49 567z" />
<glyph unicode="&#xc7;" horiz-adv-x="1153" d="M59 768q1 415 167.5 608t514.5 193q198 0 357 -64l-4 -358q-157 55 -308 55q-81 0 -138.5 -20.5t-100 -69t-63.5 -133.5t-21 -211t20.5 -211.5t64 -134t100.5 -68.5t138 -20q151 0 308 55l4 -358q-140 -60 -322 -64l4 -63q207 -53 207 -201q0 -108 -81 -161.5t-218 -53.5 q-133 0 -213 33v200q74 -22 162 -22q106 0 106 51q0 58 -153 78l14 147q-278 34 -411 226t-134 567z" />
<glyph unicode="&#xc8;" horiz-adv-x="1169" d="M76 0v1536h1032v-354h-631v-215h574v-355h-574v-258h631v-354h-1032zM283 1864h397l94 -254h-328z" />
<glyph unicode="&#xc9;" horiz-adv-x="1169" d="M76 0v1536h1032v-354h-631v-215h574v-355h-574v-258h631v-354h-1032zM446 1610l95 254h397l-164 -254h-328z" />
<glyph unicode="&#xca;" horiz-adv-x="1169" d="M76 0v1536h1032v-354h-631v-215h574v-355h-574v-258h631v-354h-1032zM180 1610l258 254h344l258 -254h-297l-133 82l-133 -82h-297z" />
<glyph unicode="&#xcb;" horiz-adv-x="1169" d="M76 0v1536h1032v-354h-631v-215h574v-355h-574v-258h631v-354h-1032zM129 1737q0 45 17 75.5t49.5 45.5t69.5 20.5t89 5.5t89 -5.5t70 -20.5t50 -45.5t17 -75.5t-17 -75.5t-50 -45.5t-70 -21t-89 -6t-89 6t-69.5 21t-49.5 45.5t-17 75.5zM641 1737q0 45 17 75.5 t49.5 45.5t69.5 20.5t89 5.5t89 -5.5t70 -20.5t50 -45.5t17 -75.5t-17 -75.5t-50 -45.5t-70 -21t-89 -6t-89 6t-69.5 21t-49.5 45.5t-17 75.5z" />
<glyph unicode="&#xcc;" horiz-adv-x="577" d="M-39 1864h397l95 -254h-328zM88 0v1536h401v-1536h-401z" />
<glyph unicode="&#xcd;" horiz-adv-x="577" d="M88 0v1536h401v-1536h-401zM125 1610l94 254h397l-163 -254h-328z" />
<glyph unicode="&#xce;" horiz-adv-x="577" d="M-141 1610l258 254h344l258 -254h-297l-133 82l-133 -82h-297zM88 0v1536h401v-1536h-401z" />
<glyph unicode="&#xcf;" horiz-adv-x="577" d="M-193 1737q0 45 17 75.5t50 45.5t70 20.5t89 5.5t89 -5.5t69.5 -20.5t49.5 -45.5t17 -75.5t-17 -75.5t-49.5 -45.5t-69.5 -21t-89 -6t-89 6t-70 21t-50 45.5t-17 75.5zM88 0v1536h401v-1536h-401zM319 1737q0 45 17 75.5t50 45.5t70 20.5t89 5.5t89 -5.5t69.5 -20.5 t49.5 -45.5t17 -75.5t-17 -75.5t-49.5 -45.5t-69.5 -21t-89 -6t-89 6t-70 21t-50 45.5t-17 75.5z" />
<glyph unicode="&#xd0;" horiz-adv-x="1425" d="M20 623v292h158v621h524q158 0 276.5 -39t192 -105.5t119 -166.5t63 -209.5t17.5 -247.5q0 -139 -17.5 -248.5t-63 -209.5t-119.5 -166t-192 -105t-276 -39h-524v623h-158zM580 350h125q144 0 198.5 99.5t54.5 318.5q0 218 -54.5 318t-198.5 100h-125v-271h260v-292h-260 v-273z" />
<glyph unicode="&#xd1;" horiz-adv-x="1351" d="M76 0v1536h387l430 -799l-19 799h402v-1536h-387l-430 799l18 -799h-401zM221 1610v12q0 146 67.5 203t192.5 57q69 0 133 -22.5t115.5 -45t87.5 -22.5q90 0 90 72h223v-13q0 -146 -67.5 -203t-192.5 -57q-69 0 -133 22.5t-115 45t-87 22.5q-91 0 -91 -71h-223z" />
<glyph unicode="&#xd2;" horiz-adv-x="1363" d="M59 768q0 109 8 197.5t27 173t50 149t79.5 118.5t113 89t151.5 54.5t194 19.5t194 -19.5t151.5 -54.5t113 -89t79.5 -118.5t50 -149t27 -173t8 -197.5t-8 -197.5t-27 -173t-50 -149t-79.5 -118.5t-113 -89t-151.5 -54.5t-194 -19.5t-194 19.5t-151.5 54.5t-113 89 t-79.5 118.5t-50 149t-27 173t-8 197.5zM354 1864h398l94 -254h-328zM467 768q0 -173 20.5 -268t66 -135.5t128.5 -40.5t128.5 40.5t66 135.5t20.5 268t-20.5 268t-66 135.5t-128.5 40.5t-128.5 -40.5t-66 -135.5t-20.5 -268z" />
<glyph unicode="&#xd3;" horiz-adv-x="1363" d="M59 768q0 109 8 197.5t27 173t50 149t79.5 118.5t113 89t151.5 54.5t194 19.5t194 -19.5t151.5 -54.5t113 -89t79.5 -118.5t50 -149t27 -173t8 -197.5t-8 -197.5t-27 -173t-50 -149t-79.5 -118.5t-113 -89t-151.5 -54.5t-194 -19.5t-194 19.5t-151.5 54.5t-113 89 t-79.5 118.5t-50 149t-27 173t-8 197.5zM467 768q0 -173 20.5 -268t66 -135.5t128.5 -40.5t128.5 40.5t66 135.5t20.5 268t-20.5 268t-66 135.5t-128.5 40.5t-128.5 -40.5t-66 -135.5t-20.5 -268zM518 1610l94 254h398l-164 -254h-328z" />
<glyph unicode="&#xd4;" horiz-adv-x="1363" d="M59 768q0 109 8 197.5t27 173t50 149t79.5 118.5t113 89t151.5 54.5t194 19.5t194 -19.5t151.5 -54.5t113 -89t79.5 -118.5t50 -149t27 -173t8 -197.5t-8 -197.5t-27 -173t-50 -149t-79.5 -118.5t-113 -89t-151.5 -54.5t-194 -19.5t-194 19.5t-151.5 54.5t-113 89 t-79.5 118.5t-50 149t-27 173t-8 197.5zM252 1610l258 254h344l258 -254h-297l-133 82l-133 -82h-297zM467 768q0 -173 20.5 -268t66 -135.5t128.5 -40.5t128.5 40.5t66 135.5t20.5 268t-20.5 268t-66 135.5t-128.5 40.5t-128.5 -40.5t-66 -135.5t-20.5 -268z" />
<glyph unicode="&#xd5;" horiz-adv-x="1363" d="M59 768q0 109 8 197.5t27 173t50 149t79.5 118.5t113 89t151.5 54.5t194 19.5t194 -19.5t151.5 -54.5t113 -89t79.5 -118.5t50 -149t27 -173t8 -197.5t-8 -197.5t-27 -173t-50 -149t-79.5 -118.5t-113 -89t-151.5 -54.5t-194 -19.5t-194 19.5t-151.5 54.5t-113 89 t-79.5 118.5t-50 149t-27 173t-8 197.5zM227 1610v12q0 146 67.5 203t192.5 57q69 0 133 -22.5t115.5 -45t87.5 -22.5q90 0 90 72h224v-13q0 -146 -67.5 -203t-192.5 -57q-69 0 -133 22.5t-115.5 45t-87.5 22.5q-90 0 -90 -71h-224zM467 768q0 -173 20.5 -268t66 -135.5 t128.5 -40.5t128.5 40.5t66 135.5t20.5 268t-20.5 268t-66 135.5t-128.5 40.5t-128.5 -40.5t-66 -135.5t-20.5 -268z" />
<glyph unicode="&#xd6;" horiz-adv-x="1363" d="M59 768q0 109 8 197.5t27 173t50 149t79.5 118.5t113 89t151.5 54.5t194 19.5t194 -19.5t151.5 -54.5t113 -89t79.5 -118.5t50 -149t27 -173t8 -197.5t-8 -197.5t-27 -173t-50 -149t-79.5 -118.5t-113 -89t-151.5 -54.5t-194 -19.5t-194 19.5t-151.5 54.5t-113 89 t-79.5 118.5t-50 149t-27 173t-8 197.5zM201 1737q0 45 17 75.5t49.5 45.5t69.5 20.5t89 5.5t89 -5.5t69.5 -20.5t49.5 -45.5t17 -75.5t-17 -75.5t-49.5 -45.5t-69.5 -21t-89 -6t-89 6t-69.5 21t-49.5 45.5t-17 75.5zM467 768q0 -173 20.5 -268t66 -135.5t128.5 -40.5 t128.5 40.5t66 135.5t20.5 268t-20.5 268t-66 135.5t-128.5 40.5t-128.5 -40.5t-66 -135.5t-20.5 -268zM713 1737q0 45 17 75.5t49.5 45.5t69.5 20.5t89 5.5t89 -5.5t69.5 -20.5t49.5 -45.5t17 -75.5t-17 -75.5t-49.5 -45.5t-69.5 -21t-89 -6t-89 6t-69.5 21t-49.5 45.5 t-17 75.5z" />
<glyph unicode="&#xd7;" horiz-adv-x="1228" d="M72 420l278 278l-278 279l264 264l278 -278l279 278l264 -264l-278 -279l278 -278l-264 -264l-279 278l-278 -278z" />
<glyph unicode="&#xd8;" horiz-adv-x="1366" d="M59 768q0 109 8 197.5t27 173t50 149t79.5 118.5t113 89t151.5 54.5t194 19.5q209 0 344 -74l27 41h211l-99 -160q140 -184 140 -608q0 -109 -8 -197.5t-27 -173t-50 -149t-79.5 -118.5t-113 -89t-151.5 -54.5t-194 -19.5q-207 0 -346 74l-25 -41h-211l99 158 q-77 100 -108.5 250.5t-31.5 359.5zM467 768q0 -94 6 -168l348 561q-45 51 -139 51q-83 0 -128.5 -40.5t-66 -135.5t-20.5 -268zM543 373q46 -49 139 -49q83 0 128.5 40.5t66 135.5t20.5 268q0 95 -6 166z" />
<glyph unicode="&#xd9;" horiz-adv-x="1327" d="M68 498v1038h401v-1008q0 -63 15.5 -105.5t44.5 -63.5t61 -29t74 -8q43 0 75 8t60.5 29t43.5 63.5t15 105.5v1008h402v-1038q0 -103 -24.5 -187t-69 -140.5t-100.5 -97.5t-125 -63.5t-136.5 -32.5t-140.5 -10q-88 0 -167.5 14t-160 51t-138 94.5t-94 153t-36.5 218.5z M336 1864h397l94 -254h-327z" />
<glyph unicode="&#xda;" horiz-adv-x="1327" d="M68 498v1038h401v-1008q0 -63 15.5 -105.5t44.5 -63.5t61 -29t74 -8q43 0 75 8t60.5 29t43.5 63.5t15 105.5v1008h402v-1038q0 -103 -24.5 -187t-69 -140.5t-100.5 -97.5t-125 -63.5t-136.5 -32.5t-140.5 -10q-88 0 -167.5 14t-160 51t-138 94.5t-94 153t-36.5 218.5z M500 1610l94 254h397l-164 -254h-327z" />
<glyph unicode="&#xdb;" horiz-adv-x="1327" d="M68 498v1038h401v-1008q0 -63 15.5 -105.5t44.5 -63.5t61 -29t74 -8q43 0 75 8t60.5 29t43.5 63.5t15 105.5v1008h402v-1038q0 -103 -24.5 -187t-69 -140.5t-100.5 -97.5t-125 -63.5t-136.5 -32.5t-140.5 -10q-88 0 -167.5 14t-160 51t-138 94.5t-94 153t-36.5 218.5z M233 1610l259 254h344l258 -254h-297l-133 82l-134 -82h-297z" />
<glyph unicode="&#xdc;" horiz-adv-x="1327" d="M68 498v1038h401v-1008q0 -63 15.5 -105.5t44.5 -63.5t61 -29t74 -8q43 0 75 8t60.5 29t43.5 63.5t15 105.5v1008h402v-1038q0 -103 -24.5 -187t-69 -140.5t-100.5 -97.5t-125 -63.5t-136.5 -32.5t-140.5 -10q-88 0 -167.5 14t-160 51t-138 94.5t-94 153t-36.5 218.5z M182 1737q0 45 17 75.5t50 45.5t70 20.5t89 5.5t89 -5.5t69.5 -20.5t49.5 -45.5t17 -75.5t-17 -75.5t-49.5 -45.5t-69.5 -21t-89 -6t-89 6t-70 21t-50 45.5t-17 75.5zM694 1737q0 45 17 75.5t50 45.5t70 20.5t89 5.5t89 -5.5t69.5 -20.5t49.5 -45.5t17 -75.5t-17 -75.5 t-49.5 -45.5t-69.5 -21t-89 -6t-89 6t-70 21t-50 45.5t-17 75.5z" />
<glyph unicode="&#xdd;" horiz-adv-x="1372" d="M0 1536h449l233 -578l233 578h449l-485 -938l4 -598h-402l4 598zM520 1610l94 254h398l-164 -254h-328z" />
<glyph unicode="&#xde;" horiz-adv-x="1228" d="M76 0v1536h401v-256h146q125 0 224 -28t163.5 -76t107.5 -114t61.5 -139t18.5 -155q0 -83 -18.5 -156t-61 -139.5t-107.5 -113.5t-164 -75t-224 -28h-146v-256h-401zM477 604h148q42 0 72.5 16t46 42.5t22 52t6.5 51.5q0 25 -6.5 50t-22 51.5t-46 43.5t-72.5 17h-148 v-324z" />
<glyph unicode="&#xdf;" horiz-adv-x="1280" d="M61 0v1155q0 204 127.5 309t397.5 105q263 0 383.5 -102.5t120.5 -297.5q0 -59 -23 -112.5t-55.5 -91.5t-65 -71t-55.5 -63.5t-23 -56.5q0 -41 23.5 -63t95.5 -45q77 -24 124 -47.5t81.5 -61.5t48.5 -92t14 -135q0 -172 -106.5 -267.5t-310.5 -95.5q-180 0 -324 70l6 307 q156 -80 262 -80q101 0 101 68q0 21 -8.5 36.5t-27.5 26t-30 15t-35 12.5q-148 44 -208 110t-60 203q0 68 23 121.5t56 87.5t65.5 63.5t55.5 64.5t23 75q0 51 -32.5 83t-102.5 32q-73 0 -106 -32t-33 -83v-1147h-402z" />
<glyph unicode="&#xe0;" horiz-adv-x="1046" d="M37 297q0 76 19.5 133t52.5 92.5t85.5 59.5t108 35t131.5 18l182 16v41q0 39 -28.5 56.5t-110.5 17.5q-89 0 -190 -24.5t-172 -59.5l-4 303q68 29 188.5 50.5t237.5 21.5q110 0 190.5 -18t130.5 -49t79.5 -81t40.5 -106t11 -131v-672h-268l-39 66q-118 -99 -301 -99 q-177 0 -260.5 90.5t-83.5 239.5zM166 1536h389l102 -418h-266zM383 322q0 -55 28 -79t72 -24q90 0 135 45v193l-120 -15q-60 -6 -87.5 -32.5t-27.5 -87.5z" />
<glyph unicode="&#xe1;" horiz-adv-x="1046" d="M37 297q0 76 19.5 133t52.5 92.5t85.5 59.5t108 35t131.5 18l182 16v41q0 39 -28.5 56.5t-110.5 17.5q-89 0 -190 -24.5t-172 -59.5l-4 303q68 29 188.5 50.5t237.5 21.5q110 0 190.5 -18t130.5 -49t79.5 -81t40.5 -106t11 -131v-672h-268l-39 66q-118 -99 -301 -99 q-177 0 -260.5 90.5t-83.5 239.5zM383 322q0 -55 28 -79t72 -24q90 0 135 45v193l-120 -15q-60 -6 -87.5 -32.5t-27.5 -87.5zM391 1118l103 418h389l-226 -418h-266z" />
<glyph unicode="&#xe2;" horiz-adv-x="1046" d="M37 297q0 76 19.5 133t52.5 92.5t85.5 59.5t108 35t131.5 18l182 16v41q0 39 -28.5 56.5t-110.5 17.5q-89 0 -190 -24.5t-172 -59.5l-4 303q68 29 188.5 50.5t237.5 21.5q110 0 190.5 -18t130.5 -49t79.5 -81t40.5 -106t11 -131v-672h-268l-39 66q-118 -99 -301 -99 q-177 0 -260.5 90.5t-83.5 239.5zM94 1118l279 418h303l278 -418h-276l-154 164l-153 -164h-277zM383 322q0 -55 28 -79t72 -24q90 0 135 45v193l-120 -15q-60 -6 -87.5 -32.5t-27.5 -87.5z" />
<glyph unicode="&#xe3;" horiz-adv-x="1046" d="M37 297q0 76 19.5 133t52.5 92.5t85.5 59.5t108 35t131.5 18l182 16v41q0 39 -28.5 56.5t-110.5 17.5q-89 0 -190 -24.5t-172 -59.5l-4 303q68 29 188.5 50.5t237.5 21.5q110 0 190.5 -18t130.5 -49t79.5 -81t40.5 -106t11 -131v-672h-268l-39 66q-118 -99 -301 -99 q-177 0 -260.5 90.5t-83.5 239.5zM70 1153v41q0 182 74 270t208 88q49 0 91 -15t70.5 -37t53 -43.5t49.5 -36.5t50 -15q50 0 70 25t20 71h223v-41q0 -182 -74.5 -270t-208.5 -88q-60 0 -110.5 23t-78.5 50.5t-61 50.5t-63 23q-50 0 -70 -25t-20 -71h-223zM383 322 q0 -55 28 -79t72 -24q90 0 135 45v193l-120 -15q-60 -6 -87.5 -32.5t-27.5 -87.5z" />
<glyph unicode="&#xe4;" horiz-adv-x="1046" d="M37 297q0 76 19.5 133t52.5 92.5t85.5 59.5t108 35t131.5 18l182 16v41q0 39 -28.5 56.5t-110.5 17.5q-89 0 -190 -24.5t-172 -59.5l-4 303q68 29 188.5 50.5t237.5 21.5q110 0 190.5 -18t130.5 -49t79.5 -81t40.5 -106t11 -131v-672h-268l-39 66q-118 -99 -301 -99 q-177 0 -260.5 90.5t-83.5 239.5zM43 1327q0 94 65.5 159.5t159.5 65.5t160 -65.5t66 -159.5t-66 -159.5t-160 -65.5t-159.5 65.5t-65.5 159.5zM383 322q0 -55 28 -79t72 -24q90 0 135 45v193l-120 -15q-60 -6 -87.5 -32.5t-27.5 -87.5zM555 1327q0 94 65.5 159.5 t159.5 65.5t160 -65.5t66 -159.5t-66 -159.5t-160 -65.5t-159.5 65.5t-65.5 159.5z" />
<glyph unicode="&#xe5;" horiz-adv-x="1046" d="M37 297q0 76 19.5 133t52.5 92.5t85.5 59.5t108 35t131.5 18l182 16v41q0 39 -28.5 56.5t-110.5 17.5q-89 0 -190 -24.5t-172 -59.5l-4 303q68 29 188.5 50.5t237.5 21.5q110 0 190.5 -18t130.5 -49t79.5 -81t40.5 -106t11 -131v-672h-268l-39 66q-118 -99 -301 -99 q-177 0 -260.5 90.5t-83.5 239.5zM287 1325q0 118 59 172.5t178 54.5t178.5 -54t59.5 -171q0 -118 -59.5 -172.5t-178.5 -54.5t-178 54t-59 171zM383 322q0 -55 28 -79t72 -24q90 0 135 45v193l-120 -15q-60 -6 -87.5 -32.5t-27.5 -87.5zM467 1327q0 -57 57 -57q58 0 58 55 t-58 55q-57 0 -57 -53z" />
<glyph unicode="&#xe6;" horiz-adv-x="1634" d="M37 297q0 95 28 159t83.5 97.5t123 47t162.5 13.5h182v80q0 35 -27.5 53.5t-111.5 18.5q-92 0 -190 -24t-172 -60l-4 303q68 29 188.5 50.5t237.5 21.5q178 0 292 -72q113 72 297 72q110 0 193 -24.5t134.5 -66t83.5 -103t44 -128t12 -149.5q0 -87 -8 -166h-616 q-3 -78 49.5 -120t175.5 -42q183 0 360 61l7 -280q-88 -36 -203.5 -54t-218.5 -18q-256 0 -383 109q-146 -109 -375 -109q-177 0 -260.5 90.5t-83.5 239.5zM381 317q0 -46 29 -72t73 -26q94 0 154 60q-20 83 -23 141h-116q-56 0 -86.5 -26.5t-30.5 -76.5zM969 614h280 q20 172 -123 172q-72 0 -115 -42t-42 -130z" />
<glyph unicode="&#xe7;" horiz-adv-x="876" d="M35 512q0 273 121.5 409t396.5 136q169 0 272 -41l-4 -324q-91 35 -192 35q-102 0 -151.5 -49.5t-49.5 -165.5t49.5 -165.5t151.5 -49.5q101 0 192 35l4 -324q-98 -38 -245 -41l4 -63q207 -53 207 -201q0 -108 -81 -161.5t-218 -53.5q-133 0 -213 33v200q74 -22 161 -22 q107 0 107 51q0 58 -154 78l15 152q-196 33 -284.5 165.5t-88.5 366.5z" />
<glyph unicode="&#xe8;" horiz-adv-x="1058" d="M35 512q0 278 126 411.5t390 133.5q110 0 193 -26t134.5 -69t83.5 -107t44 -131.5t12 -150.5q0 -97 -8 -176h-617q-3 -75 47.5 -107t177.5 -32q184 0 361 61l6 -280q-88 -36 -203.5 -54t-218.5 -18q-281 0 -404.5 131.5t-123.5 413.5zM178 1536h389l103 -418h-267z M393 602h281q10 89 -22 136.5t-101 47.5q-71 0 -115 -47.5t-43 -136.5z" />
<glyph unicode="&#xe9;" horiz-adv-x="1058" d="M35 512q0 278 126 411.5t390 133.5q110 0 193 -26t134.5 -69t83.5 -107t44 -131.5t12 -150.5q0 -97 -8 -176h-617q-3 -75 47.5 -107t177.5 -32q184 0 361 61l6 -280q-88 -36 -203.5 -54t-218.5 -18q-281 0 -404.5 131.5t-123.5 413.5zM393 602h281q10 89 -22 136.5 t-101 47.5q-71 0 -115 -47.5t-43 -136.5zM403 1118l103 418h389l-225 -418h-267z" />
<glyph unicode="&#xea;" horiz-adv-x="1058" d="M35 512q0 278 126 411.5t390 133.5q110 0 193 -26t134.5 -69t83.5 -107t44 -131.5t12 -150.5q0 -97 -8 -176h-617q-3 -75 47.5 -107t177.5 -32q184 0 361 61l6 -280q-88 -36 -203.5 -54t-218.5 -18q-281 0 -404.5 131.5t-123.5 413.5zM106 1118l279 418h303l279 -418 h-277l-153 164l-154 -164h-277zM393 602h281q10 89 -22 136.5t-101 47.5q-71 0 -115 -47.5t-43 -136.5z" />
<glyph unicode="&#xeb;" horiz-adv-x="1058" d="M35 512q0 278 126 411.5t390 133.5q110 0 193 -26t134.5 -69t83.5 -107t44 -131.5t12 -150.5q0 -97 -8 -176h-617q-3 -75 47.5 -107t177.5 -32q184 0 361 61l6 -280q-88 -36 -203.5 -54t-218.5 -18q-281 0 -404.5 131.5t-123.5 413.5zM55 1327q0 94 66 159.5t160 65.5 t159.5 -65.5t65.5 -159.5t-65.5 -159.5t-159.5 -65.5t-160 65.5t-66 159.5zM393 602h281q10 89 -22 136.5t-101 47.5q-71 0 -115 -47.5t-43 -136.5zM567 1327q0 94 66 159.5t160 65.5t159.5 -65.5t65.5 -159.5t-65.5 -159.5t-159.5 -65.5t-160 65.5t-66 159.5z" />
<glyph unicode="&#xec;" horiz-adv-x="581" d="M-88 1536h389l102 -418h-266zM70 272v752h401v-657q0 -62 80 -62v-309q-72 -16 -150 -16q-153 0 -242 71.5t-89 220.5z" />
<glyph unicode="&#xed;" horiz-adv-x="581" d="M70 272v752h401v-657q0 -62 80 -62v-309q-72 -16 -150 -16q-153 0 -242 71.5t-89 220.5zM137 1118l103 418h389l-226 -418h-266z" />
<glyph unicode="&#xee;" horiz-adv-x="581" d="M-160 1118l279 418h303l278 -418h-276l-154 164l-153 -164h-277zM70 272v752h401v-657q0 -62 80 -62v-309q-72 -16 -150 -16q-153 0 -242 71.5t-89 220.5z" />
<glyph unicode="&#xef;" horiz-adv-x="581" d="M-211 1327q0 94 65.5 159.5t159.5 65.5t160 -65.5t66 -159.5t-66 -159.5t-160 -65.5t-159.5 65.5t-65.5 159.5zM70 272v752h401v-657q0 -62 80 -62v-309q-72 -16 -150 -16q-153 0 -242 71.5t-89 220.5zM301 1327q0 94 65.5 159.5t159.5 65.5t160 -65.5t66 -159.5 t-66 -159.5t-160 -65.5t-159.5 65.5t-65.5 159.5z" />
<glyph unicode="&#xf0;" d="M35 512q0 272 105 408.5t335 136.5q86 0 135 -17q-31 64 -80 127l-350 -123v220l197 71q-136 119 -303 201h483q84 -51 131 -92l262 92v-219l-104 -39q205 -290 205 -766q-1 -138 -27 -236.5t-84.5 -169.5t-157 -105t-239.5 -34q-143 0 -242 34.5t-157.5 106t-83.5 169.5 t-25 235zM424 512q0 -140 25.5 -191t93.5 -51q66 0 91 51t25 191t-25 191t-91 51q-68 0 -93.5 -51t-25.5 -191z" />
<glyph unicode="&#xf1;" horiz-adv-x="1134" d="M66 0v1024h266l37 -66q159 99 342 99q87 0 152.5 -18.5t105.5 -49.5t65 -78t34 -98t9 -115v-698h-401v662q0 81 -78 81q-70 0 -131 -36v-707h-401zM117 1153v41q0 182 74 270t208 88q49 0 91 -15t70.5 -37t53 -43.5t49.5 -36.5t50 -15q50 0 70 25t20 71h223v-41 q0 -182 -74.5 -270t-208.5 -88q-60 0 -110.5 23t-78.5 50.5t-61 50.5t-63 23q-50 0 -70 -25t-20 -71h-223z" />
<glyph unicode="&#xf2;" d="M35 512q0 137 25 235t83.5 169.5t157.5 106t242 34.5t242 -34.5t157.5 -106t83.5 -169.5t25 -235t-25 -235t-83.5 -169.5t-157.5 -106t-242 -34.5t-242 34.5t-157.5 106t-83.5 169.5t-25 235zM184 1536h389l103 -418h-266zM424 512q0 -140 25.5 -191t93.5 -51t93.5 51 t25.5 191t-25.5 191t-93.5 51t-93.5 -51t-25.5 -191z" />
<glyph unicode="&#xf3;" d="M35 512q0 137 25 235t83.5 169.5t157.5 106t242 34.5t242 -34.5t157.5 -106t83.5 -169.5t25 -235t-25 -235t-83.5 -169.5t-157.5 -106t-242 -34.5t-242 34.5t-157.5 106t-83.5 169.5t-25 235zM410 1118l102 418h389l-225 -418h-266zM424 512q0 -140 25.5 -191t93.5 -51 t93.5 51t25.5 191t-25.5 191t-93.5 51t-93.5 -51t-25.5 -191z" />
<glyph unicode="&#xf4;" d="M35 512q0 137 25 235t83.5 169.5t157.5 106t242 34.5t242 -34.5t157.5 -106t83.5 -169.5t25 -235t-25 -235t-83.5 -169.5t-157.5 -106t-242 -34.5t-242 34.5t-157.5 106t-83.5 169.5t-25 235zM113 1118l278 418h303l279 -418h-277l-153 164l-154 -164h-276zM424 512 q0 -140 25.5 -191t93.5 -51t93.5 51t25.5 191t-25.5 191t-93.5 51t-93.5 -51t-25.5 -191z" />
<glyph unicode="&#xf5;" d="M35 512q0 137 25 235t83.5 169.5t157.5 106t242 34.5t242 -34.5t157.5 -106t83.5 -169.5t25 -235t-25 -235t-83.5 -169.5t-157.5 -106t-242 -34.5t-242 34.5t-157.5 106t-83.5 169.5t-25 235zM88 1153v41q0 182 74.5 270t208.5 88q60 0 110.5 -23t78.5 -50.5t61 -50.5 t63 -23q50 0 70 25t20 71h223v-41q0 -182 -74 -270t-208 -88q-49 0 -91 15t-70.5 37t-53 43.5t-49.5 36.5t-50 15q-50 0 -70 -25t-20 -71h-223zM424 512q0 -140 25.5 -191t93.5 -51t93.5 51t25.5 191t-25.5 191t-93.5 51t-93.5 -51t-25.5 -191z" />
<glyph unicode="&#xf6;" d="M35 512q0 137 25 235t83.5 169.5t157.5 106t242 34.5t242 -34.5t157.5 -106t83.5 -169.5t25 -235t-25 -235t-83.5 -169.5t-157.5 -106t-242 -34.5t-242 34.5t-157.5 106t-83.5 169.5t-25 235zM61 1327q0 94 66 159.5t160 65.5t159.5 -65.5t65.5 -159.5t-65.5 -159.5 t-159.5 -65.5t-160 65.5t-66 159.5zM424 512q0 -140 25.5 -191t93.5 -51t93.5 51t25.5 191t-25.5 191t-93.5 51t-93.5 -51t-25.5 -191zM573 1327q0 94 66 159.5t160 65.5t159.5 -65.5t65.5 -159.5t-65.5 -159.5t-159.5 -65.5t-160 65.5t-66 159.5z" />
<glyph unicode="&#xf7;" horiz-adv-x="1228" d="M82 512v373h1065v-373h-1065zM389 246q0 94 65.5 159.5t159.5 65.5t160 -65.5t66 -159.5t-66 -160t-160 -66t-159.5 66t-65.5 160zM389 1151q0 94 65.5 159.5t159.5 65.5t160 -65.5t66 -159.5t-66 -159.5t-160 -65.5t-159.5 65.5t-65.5 159.5z" />
<glyph unicode="&#xf8;" d="M27 0l102 125q-94 127 -94 387q0 137 25 235t83.5 169.5t157.5 106t242 34.5q177 0 293 -58l20 25h203l-103 -127q95 -126 95 -385q0 -137 -25 -235t-83.5 -169.5t-157.5 -106t-242 -34.5q-179 0 -295 58l-19 -25h-202zM424 489l192 240q-28 25 -73 25q-68 0 -93.5 -51 t-25.5 -191v-23zM467 295q25 -25 76 -25q68 0 93.5 51t25.5 191v20z" />
<glyph unicode="&#xf9;" horiz-adv-x="1134" d="M57 326v698h402v-662q0 -81 78 -81q70 0 131 36v707h401v-1024h-266l-37 66q-159 -99 -342 -99q-87 0 -152.5 18.5t-106 49.5t-65 78t-34 98t-9.5 115zM205 1536h389l102 -418h-266z" />
<glyph unicode="&#xfa;" horiz-adv-x="1134" d="M57 326v698h402v-662q0 -81 78 -81q70 0 131 36v707h401v-1024h-266l-37 66q-159 -99 -342 -99q-87 0 -152.5 18.5t-106 49.5t-65 78t-34 98t-9.5 115zM430 1118l102 418h390l-226 -418h-266z" />
<glyph unicode="&#xfb;" horiz-adv-x="1134" d="M57 326v698h402v-662q0 -81 78 -81q70 0 131 36v707h401v-1024h-266l-37 66q-159 -99 -342 -99q-87 0 -152.5 18.5t-106 49.5t-65 78t-34 98t-9.5 115zM133 1118l279 418h303l278 -418h-276l-154 164l-153 -164h-277z" />
<glyph unicode="&#xfc;" horiz-adv-x="1134" d="M57 326v698h402v-662q0 -81 78 -81q70 0 131 36v707h401v-1024h-266l-37 66q-159 -99 -342 -99q-87 0 -152.5 18.5t-106 49.5t-65 78t-34 98t-9.5 115zM82 1327q0 94 65.5 159.5t159.5 65.5t159.5 -65.5t65.5 -159.5t-65.5 -159.5t-159.5 -65.5t-159.5 65.5t-65.5 159.5z M594 1327q0 94 65.5 159.5t159.5 65.5t159.5 -65.5t65.5 -159.5t-65.5 -159.5t-159.5 -65.5t-159.5 65.5t-65.5 159.5z" />
<glyph unicode="&#xfd;" horiz-adv-x="1110" d="M-6 1024h432l129 -590l135 590h424l-549 -1536h-452l237 526zM424 1118l102 418h389l-225 -418h-266z" />
<glyph unicode="&#xfe;" horiz-adv-x="1136" d="M66 -512v2048h401v-535q107 56 231 56q204 0 304 -128.5t100 -416.5t-100 -416.5t-304 -128.5q-124 0 -231 56v-535h-401zM467 303q46 -31 108 -31q78 0 106 53.5t28 186.5t-28 186.5t-106 53.5q-61 0 -108 -31v-418z" />
<glyph unicode="&#xff;" horiz-adv-x="1110" d="M-6 1024h432l129 -590l135 590h424l-549 -1536h-452l237 526zM76 1327q0 94 65.5 159.5t159.5 65.5t159.5 -65.5t65.5 -159.5t-65.5 -159.5t-159.5 -65.5t-159.5 65.5t-65.5 159.5zM588 1327q0 94 65.5 159.5t159.5 65.5t159.5 -65.5t65.5 -159.5t-65.5 -159.5 t-159.5 -65.5t-159.5 65.5t-65.5 159.5z" />
<glyph unicode="&#x152;" horiz-adv-x="1857" d="M55 768q0 139 17.5 248.5t63 209.5t119.5 166t192 105t276 39h1073v-354h-590v-215h533v-355h-533v-258h590v-354h-1073q-158 0 -276.5 39t-192 105.5t-119 166.5t-63 209.5t-17.5 247.5zM467 768q0 -217 55 -317.5t199 -100.5h84v836h-84q-145 0 -199.5 -100t-54.5 -318 z" />
<glyph unicode="&#x153;" horiz-adv-x="1693" d="M35 512q0 137 25 235t83.5 169.5t157.5 106t242 34.5q218 0 321 -92q100 92 322 92q110 0 193 -26t134.5 -69t83.5 -107t44 -131.5t12 -150.5q0 -97 -8 -176h-617q-3 -75 47.5 -107t177.5 -32q184 0 361 61l6 -280q-88 -36 -203.5 -54t-218.5 -18q-228 0 -334 92 q-103 -92 -321 -92q-143 0 -242 34.5t-157.5 106t-83.5 169.5t-25 235zM424 512q0 -140 25.5 -191t93.5 -51t93.5 51t25.5 191t-25.5 191t-93.5 51t-93.5 -51t-25.5 -191zM1028 602h281q10 89 -22 136.5t-101 47.5q-71 0 -115 -47.5t-43 -136.5z" />
<glyph unicode="&#x178;" horiz-adv-x="1372" d="M0 1536h449l233 -578l233 578h449l-485 -938l4 -598h-402l4 598zM203 1737q0 45 17 75.5t49.5 45.5t69.5 20.5t89 5.5t89 -5.5t69.5 -20.5t49.5 -45.5t17 -75.5t-17 -75.5t-49.5 -45.5t-69.5 -21t-89 -6t-89 6t-69.5 21t-49.5 45.5t-17 75.5zM715 1737q0 45 17 75.5 t49.5 45.5t69.5 20.5t89 5.5t89 -5.5t69.5 -20.5t49.5 -45.5t17 -75.5t-17 -75.5t-49.5 -45.5t-69.5 -21t-89 -6t-89 6t-69.5 21t-49.5 45.5t-17 75.5z" />
<glyph unicode="&#x2c6;" d="M113 1118l278 418h303l279 -418h-277l-153 164l-154 -164h-276z" />
<glyph unicode="&#x2dc;" d="M88 1153v41q0 182 74.5 270t208.5 88q60 0 110.5 -23t78.5 -50.5t61 -50.5t63 -23q50 0 70 25t20 71h223v-41q0 -182 -74 -270t-208 -88q-49 0 -91 15t-70.5 37t-53 43.5t-49.5 36.5t-50 15q-50 0 -70 -25t-20 -71h-223z" />
<glyph unicode="&#x2000;" horiz-adv-x="942" />
<glyph unicode="&#x2001;" horiz-adv-x="1884" />
<glyph unicode="&#x2002;" horiz-adv-x="942" />
<glyph unicode="&#x2003;" horiz-adv-x="1884" />
<glyph unicode="&#x2004;" horiz-adv-x="628" />
<glyph unicode="&#x2005;" horiz-adv-x="471" />
<glyph unicode="&#x2006;" horiz-adv-x="314" />
<glyph unicode="&#x2007;" horiz-adv-x="314" />
<glyph unicode="&#x2008;" horiz-adv-x="235" />
<glyph unicode="&#x2009;" horiz-adv-x="376" />
<glyph unicode="&#x200a;" horiz-adv-x="104" />
<glyph unicode="&#x2010;" horiz-adv-x="679" d="M53 508v315h574v-315h-574z" />
<glyph unicode="&#x2011;" horiz-adv-x="679" d="M53 508v315h574v-315h-574z" />
<glyph unicode="&#x2012;" horiz-adv-x="679" d="M53 508v315h574v-315h-574z" />
<glyph unicode="&#x2013;" horiz-adv-x="1024" d="M53 508v315h918v-315h-918z" />
<glyph unicode="&#x2014;" horiz-adv-x="2048" d="M53 508v315h1942v-315h-1942z" />
<glyph unicode="&#x2018;" horiz-adv-x="475" d="M-43 1024l205 512h264l-59 -512h-410z" />
<glyph unicode="&#x2019;" horiz-adv-x="475" d="M49 1024l60 512h409l-205 -512h-264z" />
<glyph unicode="&#x201a;" horiz-adv-x="516" d="M29 -317l59 512h410l-205 -512h-264z" />
<glyph unicode="&#x201c;" horiz-adv-x="935" d="M-43 1024l205 512h264l-59 -512h-410zM418 1024l205 512h264l-60 -512h-409z" />
<glyph unicode="&#x201d;" horiz-adv-x="935" d="M49 1024l60 512h409l-205 -512h-264zM510 1024l59 512h410l-205 -512h-264z" />
<glyph unicode="&#x201e;" horiz-adv-x="976" d="M29 -317l59 512h410l-205 -512h-264zM489 -317l60 512h409l-204 -512h-265z" />
<glyph unicode="&#x2022;" horiz-adv-x="772" d="M96 768q0 120 84.5 204.5t204.5 84.5t204.5 -84.5t84.5 -204.5t-84.5 -204.5t-204.5 -84.5t-204.5 84.5t-84.5 204.5z" />
<glyph unicode="&#x2026;" horiz-adv-x="2539" d="M246 193q0 94 65.5 159.5t159.5 65.5t159.5 -65.5t65.5 -159.5t-65.5 -160t-159.5 -66t-159.5 66t-65.5 160zM1044 193q0 94 66 159.5t160 65.5t159.5 -65.5t65.5 -159.5t-65.5 -160t-159.5 -66t-160 66t-66 160zM1843 193q0 94 65.5 159.5t159.5 65.5t160 -65.5 t66 -159.5t-66 -160t-160 -66t-159.5 66t-65.5 160z" />
<glyph unicode="&#x202f;" horiz-adv-x="376" />
<glyph unicode="&#x2039;" horiz-adv-x="577" d="M88 399v226l389 297v-293l-117 -117l117 -117v-293z" />
<glyph unicode="&#x203a;" horiz-adv-x="577" d="M100 102v293l117 117l-117 117v293l389 -297v-226z" />
<glyph unicode="&#x205f;" horiz-adv-x="471" />
<glyph unicode="&#x20ac;" horiz-adv-x="1224" d="M39 408v208h121v50h-121v206h141q46 232 207.5 336.5t433.5 104.5q235 0 353 -58l-7 -325q-130 47 -301 47q-106 0 -173 -23.5t-93 -81.5h434l-73 -206h-408v-50h391l-74 -208h-272q28 -58 95 -81.5t173 -23.5q171 0 301 47l7 -325q-126 -58 -353 -58q-272 0 -433.5 105 t-207.5 336h-141z" />
<glyph unicode="&#x2122;" horiz-adv-x="1239" d="M51 1364v172h420v-172h-119v-340h-180v340h-121zM532 1024v512h197l111 -258l110 258h197v-512h-168l2 209l-80 -209h-123l-82 209l4 -209h-168z" />
<glyph unicode="&#x25fc;" horiz-adv-x="1024" d="M0 0v1024h1024v-1024h-1024z" />
</font>
</defs>
</svg>
