<?xml version="1.0" encoding="utf-8"?>
<!-- Generator: Adobe Illustrator 16.0.3, SVG Export Plug-In . SVG Version: 6.00 Build 0)  -->
<!DOCTYPE svg PUBLIC "-//W3C//DTD SVG 1.1//EN" "http://www.w3.org/Graphics/SVG/1.1/DTD/svg11.dtd">
<svg version="1.1" id="Layer_1" xmlns="http://www.w3.org/2000/svg" xmlns:xlink="http://www.w3.org/1999/xlink" x="0px" y="0px"
	 width="555.992px" height="246.342px" viewBox="0 0 555.992 246.342" enable-background="new 0 0 555.992 246.342"
	 xml:space="preserve">
<g>
	<path fill="#FFFFFF" d="M276.962,148.667c-41.18,0-74.684-33.504-74.684-74.682c0-41.186,33.504-74.688,74.684-74.688
		c41.183,0,74.688,33.501,74.688,74.688C351.65,115.163,318.145,148.667,276.962,148.667z M276.962,14.231
		c-32.946,0-59.749,26.807-59.749,59.754c0,32.943,26.803,59.749,59.749,59.749c32.95,0,59.752-26.804,59.752-59.749
		C336.714,41.038,309.912,14.231,276.962,14.231z"/>
	<polygon fill="#FFFFFF" points="266.308,44.549 302.559,73.985 266.308,103.417 	"/>
</g>
<g>
	<g>
		<path fill="#FFFFFF" d="M23.937,188.763c1.449,0,2.298,0.862,2.548,2.588v0.315c0,0.408-0.112,0.962-0.336,1.659
			c1.541,1.055,4.669,2.213,9.385,3.478l12.505,6.164c3.886,2.041,5.828,4.247,5.828,6.618V210c0,4.558-5.367,8.455-16.101,11.694
			c-2.595,0.619-4.887,1.146-6.875,1.58l0.079,1.049c0,0.263-0.863,0.65-2.588,1.164l-0.73,0.08c-0.435,0-1.179-0.323-2.232-0.969
			c-0.593-0.158-2.615-0.304-6.065-0.435c-1.133-0.304-1.903-0.765-2.312-1.383l-0.237-0.534c0.408-1.501,0.988-2.469,1.739-2.902
			l0.81-0.574c1.884,0.461,3.069,0.691,3.556,0.691h0.415c-0.764-5.82-1.482-10.879-2.154-15.173
			c-0.263-1.962-0.395-3.933-0.395-5.907c-0.698-0.564-3.221-1.119-7.567-1.658c-2.133-0.488-3.201-1.312-3.201-2.471v-0.611
			c0-0.619,0.823-1.384,2.47-2.293l0.316-0.334c3.964,1.053,6.46,1.579,7.487,1.579v-0.157c0-1.937,0.876-3.136,2.627-3.597
			L23.937,188.763z M25.754,199.647c0,5.07,0.968,11.444,2.904,19.123h0.079c4.214-0.697,7.586-1.521,10.115-2.47
			c4.676-1.829,7.297-3.082,7.863-3.754c0.724-0.776,1.086-1.435,1.086-1.976v-0.336c0-1.698-2.819-3.911-8.456-6.639
			c-5.584-2.699-10.036-4.05-13.355-4.05h-0.237L25.754,199.647L25.754,199.647z"/>
		<path fill="#FFFFFF" d="M71.003,207.926c0.316,1.134,0.474,2.015,0.474,2.646c0,2.636-2.048,4.763-6.144,6.383v0.079
			c1.106,1.829,2.521,2.745,4.247,2.745c2.397,0,4.946-1.909,7.646-5.729c1.673-1.869,2.944-2.806,3.813-2.806h0.158l0.158,0.178
			v0.812l-0.079,0.314c0.026,0.133,0.131,0.225,0.316,0.277c0.355,0,0.586-0.283,0.691-0.85h0.158v0.078
			c0,0.896-0.777,2.37-2.331,4.426c-0.276,0.475-0.468,0.994-0.573,1.561c-0.725,0.172-1.086,0.468-1.086,0.891
			c-1.489,2.437-3.674,4.154-6.559,5.155c-0.948,0.21-1.719,0.315-2.312,0.315h-0.81c-3.886,0-7.705-2.805-11.459-8.416l-0.395-6.4
			v-0.593c0-2.621,0.85-4.255,2.548-4.899c1.831-1.027,3.438-1.541,4.82-1.541C67.039,202.552,69.278,204.343,71.003,207.926z
			 M63.18,213.635c0.592,0,1.514-0.468,2.766-1.401c0.21-0.659,0.316-1.187,0.316-1.582c0-1.592-0.711-2.698-2.133-3.317
			l-0.613-0.079c-0.817,0-1.225,0.258-1.225,0.771c-0.29,0.525-0.435,1.291-0.435,2.291
			C61.856,211.883,62.297,212.989,63.18,213.635z"/>
		<path fill="#FFFFFF" d="M90.925,187.022c1.211,0,2.074,0.606,2.588,1.817c-1.054,6.493-1.581,11.617-1.581,15.37v3.398
			l1.086,0.078c2.344,0,4.933-0.361,7.764-1.086l1.343-0.08c1.212,0,1.817,0.58,1.817,1.738c0,1.727-1.159,2.746-3.477,3.062
			c-1.027,0.275-3.682,0.58-7.962,0.908c0,0.105-0.191,0.158-0.573,0.158l0.494,5.215c0,0.726-0.165,1.371-0.494,1.938
			c0.382,0.461,0.573,1.093,0.573,1.896v0.81c0,1.817-0.191,2.792-0.573,2.924l-2.075-0.157c-0.237,0-0.521,0.184-0.85,0.553
			c-1.422-0.619-2.133-2.91-2.133-6.875c0-3.582-0.191-5.373-0.573-5.373c-0.487-0.515-2.173-0.771-5.058-0.771
			c-1.291,0-2.206-0.691-2.746-2.074v-0.236c0.646-1.422,2.114-2.133,4.405-2.133c1.212,0.025,1.818,0.104,1.818,0.235
			c0.408,0,0.705-0.336,0.889-1.007l0.257-0.158h0.691l-0.099-1.066c0-4.584,0.474-10.504,1.422-17.762
			c0.698-0.882,1.601-1.322,2.707-1.322H90.925L90.925,187.022z"/>
		<path fill="#FFFFFF" d="M112.368,187.022c1.211,0,2.074,0.606,2.588,1.817c-1.054,6.493-1.581,11.617-1.581,15.37v3.398
			l1.087,0.078c2.344,0,4.932-0.361,7.764-1.086l1.344-0.08c1.211,0,1.817,0.58,1.817,1.738c0,1.727-1.159,2.746-3.477,3.062
			c-1.027,0.275-3.681,0.58-7.961,0.908c0,0.105-0.191,0.158-0.573,0.158l0.494,5.215c0,0.726-0.165,1.371-0.494,1.938
			c0.382,0.461,0.573,1.093,0.573,1.896v0.81c0,1.817-0.191,2.792-0.573,2.924l-2.074-0.157c-0.237,0-0.521,0.184-0.85,0.553
			c-1.422-0.619-2.134-2.91-2.134-6.875c0-3.582-0.191-5.373-0.573-5.373c-0.487-0.515-2.173-0.771-5.057-0.771
			c-1.291,0-2.206-0.691-2.746-2.074v-0.236c0.646-1.422,2.113-2.133,4.405-2.133c1.212,0.025,1.817,0.104,1.817,0.235
			c0.408,0,0.705-0.336,0.889-1.007l0.257-0.158h0.691l-0.099-1.066c0-4.584,0.474-10.504,1.422-17.762
			c0.698-0.882,1.601-1.322,2.707-1.322H112.368L112.368,187.022z"/>
		<path fill="#FFFFFF" d="M141.279,202.058c1.027,0,1.719,0.869,2.074,2.608c0,0.908,0.554,3.858,1.66,8.851
			c0.776,2.778,1.909,5.123,3.397,7.033c0.883,1.33,1.324,2.357,1.324,3.081v0.494c0,0.619-0.389,0.929-1.166,0.929
			c-0.751,0.487-1.265,0.731-1.541,0.731c-1.462-0.541-2.772-1.706-3.932-3.497c-0.592-1.133-1.666-3.607-3.22-7.43l-0.494-0.611
			c-1.91,2.938-3.569,5.216-4.979,6.836c-1.726,1.805-3.708,2.706-5.946,2.706c-2.134,0-3.523-1.106-4.169-3.317l-0.079-1.324
			c0-2.978,1.93-6.672,5.789-11.084c2.396-1.948,5.163-3.607,8.297-4.979c0.856-0.686,1.719-1.027,2.588-1.027H141.279z
			 M129.919,218.416h0.079c1.264,0,2.542-1.106,3.833-3.319c2.383-2.937,3.576-5.229,3.576-6.875l-0.079-0.078h-0.178
			c-0.936,0.289-2.621,1.691-5.058,4.207c-1.501,1.91-2.252,3.905-2.252,5.986L129.919,218.416z"/>
		<path fill="#FFFFFF" d="M171.857,183.132c1.106,0.133,1.66,0.375,1.66,0.73c0.263,1.963,0.395,4.373,0.395,7.229v0.812
			c0,3.779-0.211,7.494-0.632,11.143l9.088-2.924l2.43-0.316c1.238,0,2.173,0.297,2.806,0.889c-0.172,0.566-0.257,1.238-0.257,2.017
			l0.079,0.079c-1.186,1.001-3.168,1.909-5.947,2.727c-2.371,0.541-4.419,1.172-6.144,1.896c-0.54,0.236-1.199,0.65-1.976,1.244
			v0.158c0.447,0.896,1.877,1.73,4.287,2.509c1.778,0.54,3.082,1.204,3.911,1.995h0.652c0.276,0,0.994,0.361,2.153,1.087
			c4.715,2.055,7.264,3.483,7.646,4.286v0.08c-0.171,0-0.31,0.578-0.415,1.738c-0.211,0.461-0.79,0.69-1.738,0.69l-1.087,0.415
			c-5.769-2.674-9.746-4.473-11.933-5.395c-1.304-0.486-2.41-0.822-3.318-1.008c-0.33,0.672-0.494,1.51-0.494,2.51l0.257,5.551
			c0,1.106-0.257,1.871-0.771,2.293c-0.171,0.117-0.31,0.586-0.415,1.402l-1.245,0.514l-0.335,0.078
			c-0.988-0.25-1.62-0.494-1.897-0.729c-0.514-1.054-0.771-2.661-0.771-4.819l0.119-7.369l-0.079-1.977l-2.43-1.66l0.079-1.007
			l-0.316-1.187c0-0.697,1.001-1.68,3.003-2.942c0.342,0,0.579-6.177,0.711-18.531c0.145-2.266,0.31-3.397,0.494-3.397
			c0.777-0.541,1.475-0.811,2.094-0.811H171.857L171.857,183.132z"/>
		<path fill="#FFFFFF" d="M209.935,202.058c1.027,0,1.719,0.869,2.074,2.608c0,0.908,0.553,3.858,1.66,8.851
			c0.777,2.778,1.91,5.123,3.398,7.033c0.882,1.33,1.324,2.357,1.324,3.081v0.494c0,0.619-0.389,0.929-1.166,0.929
			c-0.751,0.487-1.265,0.731-1.541,0.731c-1.462-0.541-2.772-1.706-3.932-3.497c-0.593-1.133-1.666-3.607-3.22-7.43l-0.494-0.611
			c-1.91,2.938-3.569,5.216-4.979,6.836c-1.726,1.805-3.708,2.706-5.947,2.706c-2.133,0-3.523-1.106-4.168-3.317l-0.079-1.324
			c0-2.978,1.93-6.672,5.789-11.084c2.397-1.948,5.163-3.607,8.297-4.979c0.856-0.686,1.719-1.027,2.588-1.027H209.935z
			 M198.575,218.416h0.079c1.264,0,2.542-1.106,3.833-3.319c2.384-2.937,3.576-5.229,3.576-6.875l-0.079-0.078h-0.178
			c-0.936,0.289-2.621,1.691-5.058,4.207c-1.501,1.91-2.252,3.905-2.252,5.986L198.575,218.416z"/>
		<path fill="#FFFFFF" d="M234.776,201.426c0.698,1.62,1.33,3.63,1.896,6.025c1.08,7.389,1.917,12.229,2.509,14.521
			c0.171,0,0.309,0.502,0.415,1.502v0.157c0,0.896-0.579,1.345-1.738,1.345H237.7c-1.673,0-2.509-0.311-2.509-0.93
			c-0.79-1.62-1.429-3.607-1.916-5.966l-1.739-10.433h-0.079c-1.857,2.267-4.043,6.651-6.559,13.158
			c-1.041,2.12-1.62,3.2-1.738,3.239c0-0.171-0.271-0.283-0.81-0.336h-1.166c-0.487,0-0.731-0.243-0.731-0.729l-0.928-1.66
			c0.724-2.635,1.086-7.258,1.086-13.868c1.106-0.673,1.686-1.08,1.739-1.226c0-0.236,0.112-0.354,0.335-0.354
			c1.937,0.264,2.904,0.546,2.904,0.849l-0.237,0.731l0.079,0.079h0.079c1.054-1.002,2.016-2.299,2.885-3.893
			c1.396-2.041,2.673-3.062,3.833-3.062C233.926,200.998,234.776,201.281,234.776,201.426z"/>
		<path fill="#FFFFFF" d="M274.205,203.976c0.816,0,1.534,0.553,2.153,1.658c-0.409,1.133-0.625,1.831-0.652,2.094l0.158,0.731
			c-1.106,0.922-2.371,4.397-3.793,10.431c-1.304,4.057-2.911,6.086-4.82,6.086c-1.673,0-3.628-2.187-5.868-6.56
			c-2.832-4.294-4.248-6.954-4.248-7.981v-0.633c0-1.619,1.403-2.43,4.208-2.43l4.248,7.804l0.731,1.009
			c1.593-1.055,2.957-3.847,4.089-8.377c0.882-2.502,1.62-3.754,2.213-3.754l0.85-0.078H274.205z"/>
		<path fill="#FFFFFF" d="M282.689,193.483c1.354,0,2.166,0.336,2.43,1.008l0.236,0.988c0,1.014-1.073,1.711-3.221,2.094h-0.572
			c-1.567-0.105-2.352-0.579-2.352-1.424l-0.079-0.314v-0.436c0.408-1.276,1.437-1.916,3.082-1.916H282.689L282.689,193.483z
			 M283.953,202.354c0.619,3.502,0.929,7.185,0.929,11.043v2.312l-0.157,8.535c-0.436,0.289-1.074,0.521-1.916,0.69l-0.594,0.633
			h-0.078c-0.462,0-0.884-0.35-1.266-1.047c0,0.328-0.053,0.494-0.158,0.494c-0.816-0.713-1.225-2.24-1.225-4.584l0.73-9.701
			c-0.105-1.276-0.158-3.232-0.158-5.867c0-2.213,0.771-3.318,2.312-3.318C283.425,201.544,283.953,201.813,283.953,202.354z"/>
		<path fill="#FFFFFF" d="M316.131,204.901c2.555,0,4.497,0.66,5.828,1.977c0.314,0.105,0.475,0.323,0.475,0.652
			c-0.488,0.328-0.759,0.56-0.811,0.691c0.329,6.953,0.493,12.143,0.493,15.566c0,6.611-0.554,10.794-1.659,12.545
			c-1.566,3.24-3.729,4.859-6.479,4.859c-2.582,0-4.849-1.041-6.797-3.121l-0.158-0.276v-0.335c0-0.777-0.691-2.016-2.074-3.715
			c-0.566-0.975-0.85-1.837-0.85-2.588c0-0.752,0.205-1.291,0.612-1.62h0.336c0.236,0,0.651,0.297,1.244,0.89
			c0.646,0,0.969,0.139,0.969,0.414c0.486,1.528,1.812,3.051,3.972,4.564c0.078,0,0.775,0.474,2.094,1.422
			c1.08-0.276,2.016-1.021,2.806-2.232c0.882-1.777,1.323-4.3,1.323-7.566l-0.236-9.699l0.078-1.58
			c-0.592,0.566-1.805,2.331-3.635,5.294c-1.488,1.778-2.957,2.667-4.405,2.667h-0.573c-0.922,0-1.976-0.605-3.16-1.816
			c-0.883-0.566-1.323-1.252-1.323-2.056c-0.33-0.868-0.494-1.896-0.494-3.082v-0.571c0-4.427,2.267-7.824,6.796-10.194
			c1.699-0.726,3.357-1.087,4.979-1.087h0.65V204.901z M308.684,217.071l0.157,1.66c1.437-0.776,2.681-2.153,3.733-4.129
			c1.133-2.016,2.152-3.701,3.062-5.059c-0.027-0.184-0.133-0.275-0.316-0.275c-1.213,0-2.68,0.705-4.405,2.113
			c-1.488,1.555-2.231,3.268-2.231,5.137V217.071z"/>
		<path fill="#FFFFFF" d="M335.361,206.503h0.08c2.713,0,4.596,1.653,5.649,4.959c0.289,0.855,0.435,1.83,0.435,2.924v0.711
			c0,3.754-1.422,6.776-4.268,9.068c-1.555,0.936-2.949,1.402-4.188,1.402h-0.276c-2.792,0-4.774-1.791-5.946-5.375
			c-0.277-0.974-0.414-1.928-0.414-2.863v-0.415c0-2.463,0.349-4.722,1.047-6.776c0.145-0.197,0.797-0.546,1.955-1.047
			c0.236-0.171,0.725-0.757,1.463-1.758C331.752,206.778,333.241,206.503,335.361,206.503z M330.541,200.161h0.218
			c1.067,0.25,1.601,0.711,1.601,1.383v0.1c0,1.053-0.73,1.896-2.192,2.528l-0.554,0.06c-0.725,0-1.237-0.422-1.54-1.265
			l-0.06-0.376v-0.236c0-0.842,0.44-1.502,1.322-1.976L330.541,200.161z M331.607,213.003l0.061,0.632l-0.139,3.755
			c0.145,2.146,0.611,3.219,1.402,3.219c1.118-0.486,2.027-1.35,2.727-2.588c0.554-1.065,0.83-2.113,0.83-3.141v-0.277
			c0-1.58-0.58-2.903-1.738-3.971c-0.869,0-1.667,0.553-2.391,1.659C331.99,212.726,331.74,212.963,331.607,213.003z
			 M337.456,200.161h0.218c1.066,0.25,1.6,0.711,1.6,1.383v0.1c0,1.053-0.729,1.896-2.191,2.528l-0.555,0.06
			c-0.725,0-1.237-0.422-1.541-1.265l-0.059-0.376v-0.236c0-0.842,0.441-1.502,1.323-1.976L337.456,200.161z"/>
		<path fill="#FFFFFF" d="M361.191,202.631c1.646,0,2.469,0.375,2.469,1.126c0.186,0.79,0.468,1.376,0.85,1.758v0.158
			c-4.688,2.371-8.087,6.21-10.193,11.518c-1.002,2.832-1.502,5.131-1.502,6.896c-1.566,0.725-2.613,1.086-3.141,1.086
			c0-0.619-0.666-1.225-1.996-1.816c0-0.896-0.725-4.472-2.173-10.729c-0.329-1.29-0.493-2.613-0.493-3.971v-1.088
			c0.236-0.868,1.033-1.383,2.391-1.541h0.197c1.619,0,2.607,1.135,2.963,3.398l-0.099,1.305c1.226-1.055,2.97-2.877,5.235-5.474
			c1.883-1.751,3.648-2.627,5.295-2.627H361.191z"/>
		<path fill="#FFFFFF" d="M382.417,202.058c1.026,0,1.719,0.869,2.074,2.608c0,0.908,0.554,3.858,1.659,8.851
			c0.776,2.778,1.91,5.123,3.397,7.033c0.884,1.33,1.324,2.357,1.324,3.081v0.494c0,0.619-0.39,0.929-1.166,0.929
			c-0.751,0.487-1.265,0.731-1.541,0.731c-1.462-0.541-2.772-1.706-3.933-3.497c-0.592-1.133-1.666-3.607-3.221-7.43l-0.492-0.611
			c-1.91,2.938-3.569,5.216-4.979,6.836c-1.726,1.805-3.708,2.706-5.946,2.706c-2.134,0-3.523-1.106-4.169-3.317l-0.079-1.324
			c0-2.978,1.93-6.672,5.789-11.084c2.396-1.948,5.162-3.607,8.297-4.979c0.856-0.686,1.719-1.027,2.588-1.027H382.417z
			 M371.057,218.416h0.079c1.265,0,2.541-1.106,3.832-3.319c2.384-2.937,3.576-5.229,3.576-6.875l-0.079-0.078h-0.178
			c-0.936,0.289-2.621,1.691-5.059,4.207c-1.502,1.91-2.252,3.905-2.252,5.986L371.057,218.416z"/>
		<path fill="#FFFFFF" d="M415.188,188.563c4.859,0,8.277,2.674,10.254,8.021c0.475,1.396,0.711,2.391,0.711,2.982
			c-0.369,1.106-1.284,1.66-2.746,1.66h-0.89l-0.771,0.078c-0.54-2.158-1.094-3.732-1.659-4.722
			c-1.396-2.383-2.688-3.575-3.873-3.575h-0.336c-1.501,0-2.391,1.391-2.666,4.168l-0.396,6.361
			c1.697,0.186,5.405,0.389,11.122,0.613c1.646,0.236,2.47,0.447,2.47,0.632c0,0.25,0.158,0.56,0.474,0.929v0.178
			c-0.368,0-0.61,0.297-0.729,0.889c-1.265,0.937-3.222,1.404-5.867,1.404h-4.801c-1.08,0-1.916,0.11-2.511,0.334
			c0.699,9.551,1.41,15.807,2.136,18.77l-0.238,0.158h-0.078c-0.158,0-0.428-0.119-0.811-0.355l-0.612,1.501h-0.396
			c-0.327,0-0.961-0.329-1.896-0.987c-0.632,0-0.947-0.389-0.947-1.166c-0.541-1.594-1.047-6.513-1.521-14.758
			c-0.197-1.712-0.351-2.568-0.455-2.568l-4.82-0.85c-0.645-0.289-1.02-0.525-1.126-0.711v-2.271c0-0.157,0.554-0.322,1.659-0.493
			c1.541-0.698,2.806-1.047,3.793-1.047h0.1v-0.079c0-7.125,1.211-12.02,3.636-14.68c0.975-0.275,2.027-0.414,3.16-0.414h0.631
			V188.563z"/>
		<path fill="#FFFFFF" d="M436.808,206.503h0.08c2.713,0,4.597,1.653,5.649,4.959c0.29,0.855,0.435,1.83,0.435,2.924v0.711
			c0,3.754-1.422,6.776-4.268,9.068c-1.554,0.936-2.949,1.402-4.188,1.402h-0.276c-2.792,0-4.773-1.791-5.945-5.375
			c-0.277-0.974-0.416-1.928-0.416-2.863v-0.415c0-2.463,0.35-4.722,1.047-6.776c0.146-0.197,0.797-0.546,1.957-1.047
			c0.236-0.171,0.725-0.757,1.461-1.758C433.2,206.778,434.688,206.503,436.808,206.503z M431.988,200.161h0.218
			c1.067,0.25,1.601,0.711,1.601,1.383v0.1c0,1.053-0.73,1.896-2.192,2.528l-0.554,0.06c-0.725,0-1.237-0.422-1.541-1.265
			l-0.06-0.376v-0.236c0-0.842,0.44-1.502,1.323-1.976L431.988,200.161z M433.055,213.003l0.061,0.632l-0.14,3.755
			c0.146,2.146,0.612,3.219,1.402,3.219c1.119-0.486,2.028-1.35,2.728-2.588c0.553-1.065,0.829-2.113,0.829-3.141v-0.277
			c0-1.58-0.579-2.903-1.737-3.971c-0.869,0-1.667,0.553-2.392,1.659C433.438,212.726,433.188,212.963,433.055,213.003z
			 M438.903,200.161h0.218c1.066,0.25,1.6,0.711,1.6,1.383v0.1c0,1.053-0.729,1.896-2.192,2.528l-0.554,0.06
			c-0.725,0-1.237-0.422-1.541-1.265l-0.059-0.376v-0.236c0-0.842,0.44-1.502,1.323-1.976L438.903,200.161z"/>
		<path fill="#FFFFFF" d="M462.638,202.631c1.646,0,2.47,0.375,2.47,1.126c0.185,0.79,0.468,1.376,0.85,1.758v0.158
			c-4.689,2.371-8.087,6.21-10.193,11.518c-1.002,2.832-1.502,5.131-1.502,6.896c-1.566,0.725-2.614,1.086-3.141,1.086
			c0-0.619-0.666-1.225-1.996-1.816c0-0.896-0.725-4.472-2.173-10.729c-0.329-1.29-0.494-2.613-0.494-3.971v-1.088
			c0.237-0.868,1.034-1.383,2.391-1.541h0.197c1.62,0,2.608,1.135,2.964,3.398l-0.1,1.305c1.226-1.055,2.971-2.877,5.235-5.474
			c1.884-1.751,3.647-2.627,5.295-2.627H462.638z"/>
		<path fill="#FFFFFF" d="M498.867,190.244c0,0.407,0.335,0.75,1.007,1.026c0.487,0.342,0.797,2.418,0.929,6.224l-0.039,7.843
			c0,3.78,1.311,8.232,3.932,13.355c1.054,1.211,1.581,2.101,1.581,2.666l0.077,0.574c0,0.328-0.446,1.125-1.343,2.391h-1.245
			c-1.816,0-3.114-1.213-3.892-3.637c-0.355-0.947-0.962-1.883-1.817-2.806c-0.672,1.752-2.141,3.372-4.405,4.86
			c-2.646,1.344-5.656,2.016-9.027,2.016c-1.331-0.962-1.996-1.482-1.996-1.562c-0.264-1.329-0.395-2.252-0.395-2.766v-0.474
			c0-1.515,1.618-3.944,4.858-7.29c3.068-2.596,5.538-4.012,7.408-4.248c0.646-0.303,0.969-0.75,0.969-1.343
			c-0.593-6.204-0.889-10.339-0.889-12.407v-2.232l2.627-1.936c0.289-0.172,0.547-0.257,0.771-0.257h0.89V190.244z M489.107,219.957
			c2.291,0,4.168-1.824,5.63-5.474c0.264-0.539,0.396-0.955,0.396-1.244c-2.503,0.804-4.32,2.181-5.453,4.13
			c-0.843,1.396-1.264,2.231-1.264,2.509L489.107,219.957z"/>
		<path fill="#FFFFFF" d="M513.908,193.483c1.356,0,2.167,0.336,2.43,1.008l0.238,0.988c0,1.014-1.074,1.711-3.221,2.094h-0.572
			c-1.568-0.105-2.353-0.579-2.353-1.424l-0.079-0.314v-0.436c0.408-1.276,1.437-1.916,3.082-1.916H513.908L513.908,193.483z
			 M515.172,202.354c0.619,3.502,0.929,7.185,0.929,11.043v2.312l-0.157,8.535c-0.436,0.289-1.074,0.521-1.916,0.69l-0.594,0.633
			h-0.078c-0.462,0-0.884-0.35-1.265-1.047c0,0.328-0.054,0.494-0.158,0.494c-0.816-0.713-1.226-2.24-1.226-4.584l0.73-9.701
			c-0.104-1.276-0.157-3.232-0.157-5.867c0-2.213,0.771-3.318,2.311-3.318C514.646,201.544,515.172,201.813,515.172,202.354z"/>
		<path fill="#FFFFFF" d="M533,204.901c2.556,0,4.498,0.66,5.828,1.977c0.315,0.105,0.475,0.323,0.475,0.652
			c-0.486,0.328-0.758,0.56-0.811,0.691c0.33,6.953,0.494,12.143,0.494,15.566c0,6.611-0.554,10.794-1.659,12.545
			c-1.567,3.24-3.729,4.859-6.479,4.859c-2.582,0-4.848-1.041-6.797-3.121l-0.158-0.276v-0.335c0-0.777-0.69-2.016-2.073-3.715
			c-0.566-0.975-0.851-1.837-0.851-2.588c0-0.752,0.205-1.291,0.613-1.62h0.336c0.236,0,0.651,0.297,1.244,0.89
			c0.646,0,0.969,0.139,0.969,0.414c0.486,1.528,1.812,3.051,3.971,4.564c0.078,0,0.777,0.474,2.095,1.422
			c1.08-0.276,2.016-1.021,2.805-2.232c0.883-1.777,1.324-4.3,1.324-7.566l-0.236-9.699l0.078-1.58
			c-0.592,0.566-1.805,2.331-3.635,5.294c-1.488,1.778-2.957,2.667-4.406,2.667h-0.572c-0.922,0-1.976-0.605-3.161-1.816
			c-0.882-0.566-1.322-1.252-1.322-2.056c-0.33-0.868-0.494-1.896-0.494-3.082v-0.571c0-4.427,2.266-7.824,6.796-10.194
			c1.699-0.726,3.357-1.087,4.979-1.087H533V204.901z M525.552,217.071l0.158,1.66c1.437-0.776,2.68-2.153,3.734-4.129
			c1.132-2.016,2.151-3.701,3.062-5.059c-0.025-0.184-0.132-0.275-0.314-0.275c-1.213,0-2.683,0.705-4.406,2.113
			c-1.488,1.555-2.232,3.268-2.232,5.137L525.552,217.071L525.552,217.071z"/>
	</g>
</g>
<path fill="#D20A11" d="M5.966,245.64c-0.998,0-1.853-0.759-1.953-1.771c-0.107-1.08,0.682-2.042,1.762-2.148
	c3.854-0.381,14.782-1.18,26.352-2.023c13.787-1.008,28.043-2.051,32.56-2.541c3.879-0.42,7.71-0.221,11.413-0.027
	c2.688,0.141,5.466,0.286,8.182,0.182c3.437-0.127,51.475-1.14,56.252-0.453c1.074,0.154,1.82,1.149,1.666,2.225
	c-0.155,1.074-1.157,1.816-2.224,1.665c-3.997-0.57-50.453,0.303-55.547,0.489c-2.891,0.113-5.76-0.038-8.535-0.184
	c-3.713-0.193-7.22-0.377-10.784,0.01c-4.584,0.5-18.876,1.543-32.697,2.554c-11.544,0.844-22.449,1.641-26.252,2.017
	C6.096,245.636,6.031,245.64,5.966,245.64z"/>
<g>
	<path fill="#FFFFFF" d="M519.001,173.174c-0.097,0-0.193-0.009-0.291-0.028c-0.813-0.16-1.343-0.947-1.183-1.761
		c1.675-8.517,8.627-37.079,27.778-47.042c0.736-0.379,1.642-0.097,2.023,0.639s0.096,1.642-0.639,2.023
		c-4.542,2.362-19.854,12.586-26.222,44.958C520.331,172.679,519.704,173.174,519.001,173.174z"/>
	<path fill="#FFFFFF" d="M517.624,175.662l-0.739-1.241c-1.953-3.281-4.438-5.835-7.069-8.539c-2.46-2.527-5.005-5.145-7.08-8.402
		c-0.444-0.697-0.239-1.625,0.46-2.07c0.697-0.441,1.625-0.24,2.07,0.46c1.909,2.999,4.236,5.39,6.699,7.921
		c2.32,2.386,4.711,4.842,6.706,7.841c1.77-1.079,3.909-2.573,6.15-4.138c4.085-2.852,8.31-5.799,11.591-7.198
		c0.761-0.325,1.643,0.03,1.968,0.792s-0.028,1.643-0.792,1.969c-2.995,1.276-7.273,4.264-11.05,6.897
		c-2.853,1.991-5.548,3.873-7.646,5.019L517.624,175.662z"/>
</g>
</svg>
